<?xml version="1.0" encoding="UTF-8" standalone="no"?>
<!DOCTYPE svg PUBLIC "-//W3C//DTD SVG 1.1//EN"
 "http://www.w3.org/Graphics/SVG/1.1/DTD/svg11.dtd">
<!-- Generated by graphviz version 9.0.0 (20231125.0833)
 -->
<!-- Title: snakemake_dag Pages: 1 -->
<svg width="674pt" height="260pt"
 viewBox="0.00 0.00 673.50 260.00" xmlns="http://www.w3.org/2000/svg" xmlns:xlink="http://www.w3.org/1999/xlink">
<g id="graph0" class="graph" transform="scale(1 1) rotate(0) translate(4 256)">
<title>snakemake_dag</title>
<polygon fill="white" stroke="none" points="-4,4 -4,-256 669.5,-256 669.5,4 -4,4"/>
<!-- 0 -->
<g id="node1" class="node">
<title>0</title>
<path fill="none" stroke="#59d856" stroke-width="2" d="M347.75,-36C347.75,-36 317.75,-36 317.75,-36 311.75,-36 305.75,-30 305.75,-24 305.75,-24 305.75,-12 305.75,-12 305.75,-6 311.75,0 317.75,0 317.75,0 347.75,0 347.75,0 353.75,0 359.75,-6 359.75,-12 359.75,-12 359.75,-24 359.75,-24 359.75,-30 353.75,-36 347.75,-36"/>
<text text-anchor="middle" x="332.75" y="-14.88" font-family="sans" font-size="10.00">all</text>
</g>
<!-- 1 -->
<g id="node2" class="node">
<title>1</title>
<path fill="none" stroke="#d6d856" stroke-width="2" d="M311.88,-108C311.88,-108 245.62,-108 245.62,-108 239.62,-108 233.62,-102 233.62,-96 233.62,-96 233.62,-84 233.62,-84 233.62,-78 239.62,-72 245.62,-72 245.62,-72 311.88,-72 311.88,-72 317.88,-72 323.88,-78 323.88,-84 323.88,-84 323.88,-96 323.88,-96 323.88,-102 317.88,-108 311.88,-108"/>
<text text-anchor="middle" x="278.75" y="-86.88" font-family="sans" font-size="10.00">sort_and_index</text>
</g>
<!-- 1&#45;&gt;0 -->
<g id="edge1" class="edge">
<title>1&#45;&gt;0</title>
<path fill="none" stroke="grey" stroke-width="2" d="M292.38,-71.34C298.02,-64.01 304.72,-55.34 311.01,-47.18"/>
<polygon fill="grey" stroke="grey" stroke-width="2" points="313.75,-49.35 317.09,-39.3 308.21,-45.08 313.75,-49.35"/>
</g>
<!-- 2 -->
<g id="node3" class="node">
<title>2</title>
<path fill="none" stroke="#56d8d8" stroke-width="2" d="M311.5,-180C311.5,-180 12,-180 12,-180 6,-180 0,-174 0,-168 0,-168 0,-156 0,-156 0,-150 6,-144 12,-144 12,-144 311.5,-144 311.5,-144 317.5,-144 323.5,-150 323.5,-156 323.5,-156 323.5,-168 323.5,-168 323.5,-174 317.5,-180 311.5,-180"/>
<text text-anchor="middle" x="161.75" y="-165.25" font-family="sans" font-size="10.00">align_reads</text>
<text text-anchor="middle" x="161.75" y="-152.5" font-family="sans" font-size="10.00">out_base: /staging/leuven/stg_00096/home/rdewin/WGS/results</text>
</g>
<!-- 2&#45;&gt;1 -->
<g id="edge3" class="edge">
<title>2&#45;&gt;1</title>
<path fill="none" stroke="grey" stroke-width="2" d="M191.58,-143.15C205.74,-134.68 222.89,-124.42 238.21,-115.25"/>
<polygon fill="grey" stroke="grey" stroke-width="2" points="239.6,-118.5 246.38,-110.37 236,-112.5 239.6,-118.5"/>
</g>
<!-- 3 -->
<g id="node4" class="node">
<title>3</title>
<path fill="none" stroke="#d85656" stroke-width="2" d="M190.75,-252C190.75,-252 132.75,-252 132.75,-252 126.75,-252 120.75,-246 120.75,-240 120.75,-240 120.75,-228 120.75,-228 120.75,-222 126.75,-216 132.75,-216 132.75,-216 190.75,-216 190.75,-216 196.75,-216 202.75,-222 202.75,-228 202.75,-228 202.75,-240 202.75,-240 202.75,-246 196.75,-252 190.75,-252"/>
<text text-anchor="middle" x="161.75" y="-237.25" font-family="sans" font-size="10.00">trim_reads</text>
<text text-anchor="middle" x="161.75" y="-224.5" font-family="sans" font-size="10.00">sample: S039</text>
</g>
<!-- 3&#45;&gt;2 -->
<g id="edge4" class="edge">
<title>3&#45;&gt;2</title>
<path fill="none" stroke="grey" stroke-width="2" d="M161.75,-215.34C161.75,-208.75 161.75,-201.08 161.75,-193.67"/>
<polygon fill="grey" stroke="grey" stroke-width="2" points="165.25,-193.93 161.75,-183.93 158.25,-193.93 165.25,-193.93"/>
</g>
<!-- 4 -->
<g id="node5" class="node">
<title>4</title>
<path fill="none" stroke="#d6d856" stroke-width="2" d="M477.88,-108C477.88,-108 411.62,-108 411.62,-108 405.62,-108 399.62,-102 399.62,-96 399.62,-96 399.62,-84 399.62,-84 399.62,-78 405.62,-72 411.62,-72 411.62,-72 477.88,-72 477.88,-72 483.88,-72 489.88,-78 489.88,-84 489.88,-84 489.88,-96 489.88,-96 489.88,-102 483.88,-108 477.88,-108"/>
<text text-anchor="middle" x="444.75" y="-86.88" font-family="sans" font-size="10.00">sort_and_index</text>
</g>
<!-- 4&#45;&gt;0 -->
<g id="edge2" class="edge">
<title>4&#45;&gt;0</title>
<path fill="none" stroke="grey" stroke-width="2" d="M416.2,-71.15C402.56,-62.63 386.05,-52.31 371.31,-43.1"/>
<polygon fill="grey" stroke="grey" stroke-width="2" points="373.38,-40.27 363.04,-37.93 369.67,-46.2 373.38,-40.27"/>
</g>
<!-- 5 -->
<g id="node6" class="node">
<title>5</title>
<path fill="none" stroke="#56d8d8" stroke-width="2" d="M653.5,-180C653.5,-180 354,-180 354,-180 348,-180 342,-174 342,-168 342,-168 342,-156 342,-156 342,-150 348,-144 354,-144 354,-144 653.5,-144 653.5,-144 659.5,-144 665.5,-150 665.5,-156 665.5,-156 665.5,-168 665.5,-168 665.5,-174 659.5,-180 653.5,-180"/>
<text text-anchor="middle" x="503.75" y="-165.25" font-family="sans" font-size="10.00">align_reads</text>
<text text-anchor="middle" x="503.75" y="-152.5" font-family="sans" font-size="10.00">out_base: /staging/leuven/stg_00096/home/rdewin/WGS/results</text>
</g>
<!-- 5&#45;&gt;4 -->
<g id="edge5" class="edge">
<title>5&#45;&gt;4</title>
<path fill="none" stroke="grey" stroke-width="2" d="M488.86,-143.34C482.55,-135.85 475.05,-126.95 468.04,-118.63"/>
<polygon fill="grey" stroke="grey" stroke-width="2" points="470.91,-116.61 461.79,-111.22 465.56,-121.12 470.91,-116.61"/>
</g>
<!-- 6 -->
<g id="node7" class="node">
<title>6</title>
<path fill="none" stroke="#d85656" stroke-width="2" d="M532.75,-252C532.75,-252 474.75,-252 474.75,-252 468.75,-252 462.75,-246 462.75,-240 462.75,-240 462.75,-228 462.75,-228 462.75,-222 468.75,-216 474.75,-216 474.75,-216 532.75,-216 532.75,-216 538.75,-216 544.75,-222 544.75,-228 544.75,-228 544.75,-240 544.75,-240 544.75,-246 538.75,-252 532.75,-252"/>
<text text-anchor="middle" x="503.75" y="-237.25" font-family="sans" font-size="10.00">trim_reads</text>
<text text-anchor="middle" x="503.75" y="-224.5" font-family="sans" font-size="10.00">sample: S041</text>
</g>
<!-- 6&#45;&gt;5 -->
<g id="edge6" class="edge">
<title>6&#45;&gt;5</title>
<path fill="none" stroke="grey" stroke-width="2" d="M503.75,-215.34C503.75,-208.75 503.75,-201.08 503.75,-193.67"/>
<polygon fill="grey" stroke="grey" stroke-width="2" points="507.25,-193.93 503.75,-183.93 500.25,-193.93 507.25,-193.93"/>
</g>
</g>
</svg>
