<?xml version="1.0" encoding="UTF-8" standalone="no"?>
<!DOCTYPE svg PUBLIC "-//W3C//DTD SVG 1.1//EN"
 "http://www.w3.org/Graphics/SVG/1.1/DTD/svg11.dtd">
<!-- Generated by graphviz version 9.0.0 (20231125.0833)
 -->
<!-- Title: snakemake_dag Pages: 1 -->
<svg width="143pt" height="414pt"
 viewBox="0.00 0.00 142.88 414.25" xmlns="http://www.w3.org/2000/svg" xmlns:xlink="http://www.w3.org/1999/xlink">
<g id="graph0" class="graph" transform="scale(1 1) rotate(0) translate(4 410.25)">
<title>snakemake_dag</title>
<polygon fill="white" stroke="none" points="-4,4 -4,-410.25 138.88,-410.25 138.88,4 -4,4"/>
<!-- 0 -->
<g id="node1" class="node">
<title>0</title>
<path fill="none" stroke="#56d8c9" stroke-width="2" d="M81.25,-36C81.25,-36 12,-36 12,-36 6,-36 0,-30 0,-24 0,-24 0,-12 0,-12 0,-6 6,0 12,0 12,0 81.25,0 81.25,0 87.25,0 93.25,-6 93.25,-12 93.25,-12 93.25,-24 93.25,-24 93.25,-30 87.25,-36 81.25,-36"/>
<text text-anchor="middle" x="46.62" y="-14.88" font-family="sans" font-size="10.00">samtools_index</text>
</g>
<!-- 1 -->
<g id="node2" class="node">
<title>1</title>
<path fill="none" stroke="#56a2d8" stroke-width="2" d="M69.25,-108C69.25,-108 24,-108 24,-108 18,-108 12,-102 12,-96 12,-96 12,-84 12,-84 12,-78 18,-72 24,-72 24,-72 69.25,-72 69.25,-72 75.25,-72 81.25,-78 81.25,-84 81.25,-84 81.25,-96 81.25,-96 81.25,-102 75.25,-108 69.25,-108"/>
<text text-anchor="middle" x="46.62" y="-86.88" font-family="sans" font-size="10.00">apply_bqsr</text>
</g>
<!-- 1&#45;&gt;0 -->
<g id="edge1" class="edge">
<title>1&#45;&gt;0</title>
<path fill="none" stroke="grey" stroke-width="2" d="M46.62,-71.34C46.62,-64.75 46.62,-57.08 46.62,-49.67"/>
<polygon fill="grey" stroke="grey" stroke-width="2" points="50.13,-49.93 46.63,-39.93 43.13,-49.93 50.13,-49.93"/>
</g>
<!-- 2 -->
<g id="node3" class="node">
<title>2</title>
<path fill="none" stroke="#d8a456" stroke-width="2" d="M77.12,-252C77.12,-252 16.12,-252 16.12,-252 10.12,-252 4.12,-246 4.12,-240 4.12,-240 4.12,-228 4.12,-228 4.12,-222 10.12,-216 16.12,-216 16.12,-216 77.12,-216 77.12,-216 83.12,-216 89.12,-222 89.12,-228 89.12,-228 89.12,-240 89.12,-240 89.12,-246 83.12,-252 77.12,-252"/>
<text text-anchor="middle" x="46.62" y="-230.88" font-family="sans" font-size="10.00">samtools_sort</text>
</g>
<!-- 2&#45;&gt;1 -->
<g id="edge2" class="edge">
<title>2&#45;&gt;1</title>
<path fill="none" stroke="grey" stroke-width="2" d="M38.53,-215.27C34.37,-205.16 29.73,-192.13 27.62,-180 24.88,-164.24 24.88,-159.76 27.62,-144 28.96,-136.32 31.31,-128.28 33.9,-120.86"/>
<polygon fill="grey" stroke="grey" stroke-width="2" points="37.16,-122.15 37.45,-111.56 30.62,-119.66 37.16,-122.15"/>
</g>
<!-- 5 -->
<g id="node6" class="node">
<title>5</title>
<path fill="none" stroke="#78d856" stroke-width="2" d="M122.88,-180C122.88,-180 48.38,-180 48.38,-180 42.38,-180 36.38,-174 36.38,-168 36.38,-168 36.38,-156 36.38,-156 36.38,-150 42.38,-144 48.38,-144 48.38,-144 122.88,-144 122.88,-144 128.88,-144 134.88,-150 134.88,-156 134.88,-156 134.88,-168 134.88,-168 134.88,-174 128.88,-180 122.88,-180"/>
<text text-anchor="middle" x="85.62" y="-158.88" font-family="sans" font-size="10.00">base_recal_table</text>
</g>
<!-- 2&#45;&gt;5 -->
<g id="edge6" class="edge">
<title>2&#45;&gt;5</title>
<path fill="none" stroke="grey" stroke-width="2" d="M56.47,-215.34C60.36,-208.34 64.95,-200.12 69.31,-192.28"/>
<polygon fill="grey" stroke="grey" stroke-width="2" points="72.37,-193.99 74.18,-183.55 66.25,-190.58 72.37,-193.99"/>
</g>
<!-- 3 -->
<g id="node4" class="node">
<title>3</title>
<path fill="none" stroke="#d85656" stroke-width="2" d="M66.25,-324C66.25,-324 27,-324 27,-324 21,-324 15,-318 15,-312 15,-312 15,-300 15,-300 15,-294 21,-288 27,-288 27,-288 66.25,-288 66.25,-288 72.25,-288 78.25,-294 78.25,-300 78.25,-300 78.25,-312 78.25,-312 78.25,-318 72.25,-324 66.25,-324"/>
<text text-anchor="middle" x="46.62" y="-302.88" font-family="sans" font-size="10.00">bwa_map</text>
</g>
<!-- 3&#45;&gt;2 -->
<g id="edge4" class="edge">
<title>3&#45;&gt;2</title>
<path fill="none" stroke="grey" stroke-width="2" d="M46.62,-287.34C46.62,-280.75 46.62,-273.08 46.62,-265.67"/>
<polygon fill="grey" stroke="grey" stroke-width="2" points="50.13,-265.93 46.63,-255.93 43.13,-265.93 50.13,-265.93"/>
</g>
<!-- 4 -->
<g id="node5" class="node">
<title>4</title>
<path fill="none" stroke="#56d87b" stroke-width="2" d="M76.38,-406.25C76.38,-406.25 16.88,-406.25 16.88,-406.25 10.88,-406.25 4.88,-400.25 4.88,-394.25 4.88,-394.25 4.88,-372 4.88,-372 4.88,-366 10.88,-360 16.88,-360 16.88,-360 76.38,-360 76.38,-360 82.38,-360 88.38,-366 88.38,-372 88.38,-372 88.38,-394.25 88.38,-394.25 88.38,-400.25 82.38,-406.25 76.38,-406.25"/>
<text text-anchor="middle" x="46.62" y="-392.75" font-family="sans" font-size="10.00">trim_reads</text>
<text text-anchor="middle" x="46.62" y="-380" font-family="sans" font-size="10.00">sample: P018</text>
<text text-anchor="middle" x="46.62" y="-367.25" font-family="sans" font-size="10.00">unit: S039test</text>
</g>
<!-- 4&#45;&gt;3 -->
<g id="edge5" class="edge">
<title>4&#45;&gt;3</title>
<path fill="none" stroke="grey" stroke-width="2" d="M46.62,-359.18C46.62,-352.36 46.62,-344.78 46.62,-337.56"/>
<polygon fill="grey" stroke="grey" stroke-width="2" points="50.13,-337.83 46.63,-327.83 43.13,-337.83 50.13,-337.83"/>
</g>
<!-- 5&#45;&gt;1 -->
<g id="edge3" class="edge">
<title>5&#45;&gt;1</title>
<path fill="none" stroke="grey" stroke-width="2" d="M75.78,-143.34C71.89,-136.34 67.3,-128.12 62.94,-120.28"/>
<polygon fill="grey" stroke="grey" stroke-width="2" points="66,-118.58 58.07,-111.55 59.88,-121.99 66,-118.58"/>
</g>
</g>
</svg>
