<?xml version="1.0" encoding="UTF-8" standalone="no"?>
<!DOCTYPE svg PUBLIC "-//W3C//DTD SVG 1.1//EN"
 "http://www.w3.org/Graphics/SVG/1.1/DTD/svg11.dtd">
<!-- Generated by graphviz version 9.0.0 (20231125.0833)
 -->
<!-- Title: snakemake_dag Pages: 1 -->
<svg width="959pt" height="725pt"
 viewBox="0.00 0.00 959.25 725.25" xmlns="http://www.w3.org/2000/svg" xmlns:xlink="http://www.w3.org/1999/xlink">
<g id="graph0" class="graph" transform="scale(1 1) rotate(0) translate(4 721.25)">
<title>snakemake_dag</title>
<polygon fill="white" stroke="none" points="-4,4 -4,-721.25 955.25,-721.25 955.25,4 -4,4"/>
<!-- 0 -->
<g id="node1" class="node">
<title>0</title>
<path fill="none" stroke="#d8bc56" stroke-width="2" d="M306,-36C306,-36 276,-36 276,-36 270,-36 264,-30 264,-24 264,-24 264,-12 264,-12 264,-6 270,0 276,0 276,0 306,0 306,0 312,0 318,-6 318,-12 318,-12 318,-24 318,-24 318,-30 312,-36 306,-36"/>
<text text-anchor="middle" x="291" y="-14.88" font-family="sans" font-size="10.00">all</text>
</g>
<!-- 1 -->
<g id="node2" class="node">
<title>1</title>
<path fill="none" stroke="#d89c56" stroke-width="2" d="M70,-131C70,-131 12,-131 12,-131 6,-131 0,-125 0,-119 0,-119 0,-84 0,-84 0,-78 6,-72 12,-72 12,-72 70,-72 70,-72 76,-72 82,-78 82,-84 82,-84 82,-119 82,-119 82,-125 76,-131 70,-131"/>
<text text-anchor="middle" x="41" y="-117.5" font-family="sans" font-size="10.00">fastqc</text>
<text text-anchor="middle" x="41" y="-104.75" font-family="sans" font-size="10.00">alias: normal</text>
<text text-anchor="middle" x="41" y="-92" font-family="sans" font-size="10.00">read: r1</text>
<text text-anchor="middle" x="41" y="-79.25" font-family="sans" font-size="10.00">sample: P013</text>
</g>
<!-- 1&#45;&gt;0 -->
<g id="edge1" class="edge">
<title>1&#45;&gt;0</title>
<path fill="none" stroke="grey" stroke-width="2" d="M82.9,-75.6C85.6,-74.31 88.32,-73.1 91,-72 144.28,-50.19 209.24,-34.92 250.37,-26.54"/>
<polygon fill="grey" stroke="grey" stroke-width="2" points="251,-29.98 260.12,-24.61 249.63,-23.12 251,-29.98"/>
</g>
<!-- 2 -->
<g id="node3" class="node">
<title>2</title>
<path fill="none" stroke="#d89c56" stroke-width="2" d="M170,-131C170,-131 112,-131 112,-131 106,-131 100,-125 100,-119 100,-119 100,-84 100,-84 100,-78 106,-72 112,-72 112,-72 170,-72 170,-72 176,-72 182,-78 182,-84 182,-84 182,-119 182,-119 182,-125 176,-131 170,-131"/>
<text text-anchor="middle" x="141" y="-117.5" font-family="sans" font-size="10.00">fastqc</text>
<text text-anchor="middle" x="141" y="-104.75" font-family="sans" font-size="10.00">alias: normal</text>
<text text-anchor="middle" x="141" y="-92" font-family="sans" font-size="10.00">read: r2</text>
<text text-anchor="middle" x="141" y="-79.25" font-family="sans" font-size="10.00">sample: P013</text>
</g>
<!-- 2&#45;&gt;0 -->
<g id="edge2" class="edge">
<title>2&#45;&gt;0</title>
<path fill="none" stroke="grey" stroke-width="2" d="M182.96,-76.46C185.68,-74.94 188.37,-73.44 191,-72 211.01,-61 233.46,-49.06 252.01,-39.31"/>
<polygon fill="grey" stroke="grey" stroke-width="2" points="253.38,-42.55 260.61,-34.8 250.13,-36.35 253.38,-42.55"/>
</g>
<!-- 3 -->
<g id="node4" class="node">
<title>3</title>
<path fill="none" stroke="#d89c56" stroke-width="2" d="M270,-131C270,-131 212,-131 212,-131 206,-131 200,-125 200,-119 200,-119 200,-84 200,-84 200,-78 206,-72 212,-72 212,-72 270,-72 270,-72 276,-72 282,-78 282,-84 282,-84 282,-119 282,-119 282,-125 276,-131 270,-131"/>
<text text-anchor="middle" x="241" y="-117.5" font-family="sans" font-size="10.00">fastqc</text>
<text text-anchor="middle" x="241" y="-104.75" font-family="sans" font-size="10.00">alias: tumor</text>
<text text-anchor="middle" x="241" y="-92" font-family="sans" font-size="10.00">read: r1</text>
<text text-anchor="middle" x="241" y="-79.25" font-family="sans" font-size="10.00">sample: P013</text>
</g>
<!-- 3&#45;&gt;0 -->
<g id="edge3" class="edge">
<title>3&#45;&gt;0</title>
<path fill="none" stroke="grey" stroke-width="2" d="M259.05,-71.08C263.73,-63.45 268.77,-55.24 273.42,-47.65"/>
<polygon fill="grey" stroke="grey" stroke-width="2" points="276.28,-49.69 278.52,-39.34 270.31,-46.03 276.28,-49.69"/>
</g>
<!-- 4 -->
<g id="node5" class="node">
<title>4</title>
<path fill="none" stroke="#d89c56" stroke-width="2" d="M370,-131C370,-131 312,-131 312,-131 306,-131 300,-125 300,-119 300,-119 300,-84 300,-84 300,-78 306,-72 312,-72 312,-72 370,-72 370,-72 376,-72 382,-78 382,-84 382,-84 382,-119 382,-119 382,-125 376,-131 370,-131"/>
<text text-anchor="middle" x="341" y="-117.5" font-family="sans" font-size="10.00">fastqc</text>
<text text-anchor="middle" x="341" y="-104.75" font-family="sans" font-size="10.00">alias: tumor</text>
<text text-anchor="middle" x="341" y="-92" font-family="sans" font-size="10.00">read: r2</text>
<text text-anchor="middle" x="341" y="-79.25" font-family="sans" font-size="10.00">sample: P013</text>
</g>
<!-- 4&#45;&gt;0 -->
<g id="edge4" class="edge">
<title>4&#45;&gt;0</title>
<path fill="none" stroke="grey" stroke-width="2" d="M322.95,-71.08C318.27,-63.45 313.23,-55.24 308.58,-47.65"/>
<polygon fill="grey" stroke="grey" stroke-width="2" points="311.69,-46.03 303.48,-39.34 305.72,-49.69 311.69,-46.03"/>
</g>
<!-- 5 -->
<g id="node6" class="node">
<title>5</title>
<path fill="none" stroke="#59d856" stroke-width="2" d="M695.62,-119.5C695.62,-119.5 626.38,-119.5 626.38,-119.5 620.38,-119.5 614.38,-113.5 614.38,-107.5 614.38,-107.5 614.38,-95.5 614.38,-95.5 614.38,-89.5 620.38,-83.5 626.38,-83.5 626.38,-83.5 695.62,-83.5 695.62,-83.5 701.62,-83.5 707.62,-89.5 707.62,-95.5 707.62,-95.5 707.62,-107.5 707.62,-107.5 707.62,-113.5 701.62,-119.5 695.62,-119.5"/>
<text text-anchor="middle" x="661" y="-98.38" font-family="sans" font-size="10.00">samtools_index</text>
</g>
<!-- 5&#45;&gt;0 -->
<g id="edge5" class="edge">
<title>5&#45;&gt;0</title>
<path fill="none" stroke="grey" stroke-width="2" d="M613.39,-90.01C539.86,-73.82 400,-43.01 331.23,-27.86"/>
<polygon fill="grey" stroke="grey" stroke-width="2" points="332.33,-24.52 321.81,-25.79 330.82,-31.36 332.33,-24.52"/>
</g>
<!-- 6 -->
<g id="node7" class="node">
<title>6</title>
<path fill="none" stroke="#9fd856" stroke-width="2" d="M799.62,-203C799.62,-203 754.38,-203 754.38,-203 748.38,-203 742.38,-197 742.38,-191 742.38,-191 742.38,-179 742.38,-179 742.38,-173 748.38,-167 754.38,-167 754.38,-167 799.62,-167 799.62,-167 805.62,-167 811.62,-173 811.62,-179 811.62,-179 811.62,-191 811.62,-191 811.62,-197 805.62,-203 799.62,-203"/>
<text text-anchor="middle" x="777" y="-181.88" font-family="sans" font-size="10.00">apply_bqsr</text>
</g>
<!-- 6&#45;&gt;5 -->
<g id="edge7" class="edge">
<title>6&#45;&gt;5</title>
<path fill="none" stroke="grey" stroke-width="2" d="M751.54,-166.11C735.53,-154.86 714.61,-140.17 696.92,-127.74"/>
<polygon fill="grey" stroke="grey" stroke-width="2" points="699.07,-124.97 688.87,-122.08 695.04,-130.7 699.07,-124.97"/>
</g>
<!-- 7 -->
<g id="node8" class="node">
<title>7</title>
<path fill="none" stroke="#88d856" stroke-width="2" d="M886.5,-347C886.5,-347 813.5,-347 813.5,-347 807.5,-347 801.5,-341 801.5,-335 801.5,-335 801.5,-323 801.5,-323 801.5,-317 807.5,-311 813.5,-311 813.5,-311 886.5,-311 886.5,-311 892.5,-311 898.5,-317 898.5,-323 898.5,-323 898.5,-335 898.5,-335 898.5,-341 892.5,-347 886.5,-347"/>
<text text-anchor="middle" x="850" y="-325.88" font-family="sans" font-size="10.00">mark_duplicates</text>
</g>
<!-- 7&#45;&gt;6 -->
<g id="edge8" class="edge">
<title>7&#45;&gt;6</title>
<path fill="none" stroke="grey" stroke-width="2" d="M840.75,-310.02C828.47,-286.12 806.61,-243.59 791.96,-215.1"/>
<polygon fill="grey" stroke="grey" stroke-width="2" points="795.24,-213.82 787.55,-206.53 789.01,-217.02 795.24,-213.82"/>
</g>
<!-- 15 -->
<g id="node16" class="node">
<title>15</title>
<path fill="none" stroke="#d88d56" stroke-width="2" d="M759.25,-275C759.25,-275 684.75,-275 684.75,-275 678.75,-275 672.75,-269 672.75,-263 672.75,-263 672.75,-251 672.75,-251 672.75,-245 678.75,-239 684.75,-239 684.75,-239 759.25,-239 759.25,-239 765.25,-239 771.25,-245 771.25,-251 771.25,-251 771.25,-263 771.25,-263 771.25,-269 765.25,-275 759.25,-275"/>
<text text-anchor="middle" x="722" y="-253.88" font-family="sans" font-size="10.00">base_recal_table</text>
</g>
<!-- 7&#45;&gt;15 -->
<g id="edge21" class="edge">
<title>7&#45;&gt;15</title>
<path fill="none" stroke="grey" stroke-width="2" d="M817.37,-310.15C801.72,-301.6 782.75,-291.22 765.86,-281.99"/>
<polygon fill="grey" stroke="grey" stroke-width="2" points="767.68,-278.99 757.23,-277.26 764.32,-285.13 767.68,-278.99"/>
</g>
<!-- 8 -->
<g id="node9" class="node">
<title>8</title>
<path fill="none" stroke="#56d89a" stroke-width="2" d="M841.5,-419C841.5,-419 780.5,-419 780.5,-419 774.5,-419 768.5,-413 768.5,-407 768.5,-407 768.5,-395 768.5,-395 768.5,-389 774.5,-383 780.5,-383 780.5,-383 841.5,-383 841.5,-383 847.5,-383 853.5,-389 853.5,-395 853.5,-395 853.5,-407 853.5,-407 853.5,-413 847.5,-419 841.5,-419"/>
<text text-anchor="middle" x="811" y="-397.88" font-family="sans" font-size="10.00">samtools_sort</text>
</g>
<!-- 8&#45;&gt;7 -->
<g id="edge11" class="edge">
<title>8&#45;&gt;7</title>
<path fill="none" stroke="grey" stroke-width="2" d="M820.84,-382.34C824.74,-375.34 829.32,-367.12 833.69,-359.28"/>
<polygon fill="grey" stroke="grey" stroke-width="2" points="836.74,-360.99 838.55,-350.55 830.63,-357.58 836.74,-360.99"/>
</g>
<!-- 9 -->
<g id="node10" class="node">
<title>9</title>
<path fill="none" stroke="#56d8d0" stroke-width="2" d="M830.62,-491C830.62,-491 791.38,-491 791.38,-491 785.38,-491 779.38,-485 779.38,-479 779.38,-479 779.38,-467 779.38,-467 779.38,-461 785.38,-455 791.38,-455 791.38,-455 830.62,-455 830.62,-455 836.62,-455 842.62,-461 842.62,-467 842.62,-467 842.62,-479 842.62,-479 842.62,-485 836.62,-491 830.62,-491"/>
<text text-anchor="middle" x="811" y="-469.88" font-family="sans" font-size="10.00">bwa_map</text>
</g>
<!-- 9&#45;&gt;8 -->
<g id="edge12" class="edge">
<title>9&#45;&gt;8</title>
<path fill="none" stroke="grey" stroke-width="2" d="M811,-454.34C811,-447.75 811,-440.08 811,-432.67"/>
<polygon fill="grey" stroke="grey" stroke-width="2" points="814.5,-432.93 811,-422.93 807.5,-432.93 814.5,-432.93"/>
</g>
<!-- 10 -->
<g id="node11" class="node">
<title>10</title>
<path fill="none" stroke="#d85656" stroke-width="2" d="M927.25,-635C927.25,-635 882.75,-635 882.75,-635 876.75,-635 870.75,-629 870.75,-623 870.75,-623 870.75,-611 870.75,-611 870.75,-605 876.75,-599 882.75,-599 882.75,-599 927.25,-599 927.25,-599 933.25,-599 939.25,-605 939.25,-611 939.25,-611 939.25,-623 939.25,-623 939.25,-629 933.25,-635 927.25,-635"/>
<text text-anchor="middle" x="905" y="-613.88" font-family="sans" font-size="10.00">trim_reads</text>
</g>
<!-- 10&#45;&gt;9 -->
<g id="edge14" class="edge">
<title>10&#45;&gt;9</title>
<path fill="none" stroke="grey" stroke-width="2" d="M911.53,-598.21C917.32,-579.18 923.04,-548.77 910,-527 898.08,-507.1 875.86,-494.25 855.48,-486.19"/>
<polygon fill="grey" stroke="grey" stroke-width="2" points="856.91,-482.99 846.31,-482.91 854.55,-489.58 856.91,-482.99"/>
</g>
<!-- 14 -->
<g id="node15" class="node">
<title>14</title>
<path fill="none" stroke="#568ad8" stroke-width="2" d="M889.25,-563C889.25,-563 796.75,-563 796.75,-563 790.75,-563 784.75,-557 784.75,-551 784.75,-551 784.75,-539 784.75,-539 784.75,-533 790.75,-527 796.75,-527 796.75,-527 889.25,-527 889.25,-527 895.25,-527 901.25,-533 901.25,-539 901.25,-539 901.25,-551 901.25,-551 901.25,-557 895.25,-563 889.25,-563"/>
<text text-anchor="middle" x="843" y="-541.88" font-family="sans" font-size="10.00">fastqc_dna_trimmed</text>
</g>
<!-- 10&#45;&gt;14 -->
<g id="edge20" class="edge">
<title>10&#45;&gt;14</title>
<path fill="none" stroke="grey" stroke-width="2" d="M889.35,-598.34C882.72,-590.85 874.84,-581.95 867.47,-573.63"/>
<polygon fill="grey" stroke="grey" stroke-width="2" points="870.11,-571.33 860.86,-566.17 864.87,-575.97 870.11,-571.33"/>
</g>
<!-- 11 -->
<g id="node12" class="node">
<title>11</title>
<path fill="none" stroke="#56d87b" stroke-width="2" d="M939.25,-717.25C939.25,-717.25 870.75,-717.25 870.75,-717.25 864.75,-717.25 858.75,-711.25 858.75,-705.25 858.75,-705.25 858.75,-683 858.75,-683 858.75,-677 864.75,-671 870.75,-671 870.75,-671 939.25,-671 939.25,-671 945.25,-671 951.25,-677 951.25,-683 951.25,-683 951.25,-705.25 951.25,-705.25 951.25,-711.25 945.25,-717.25 939.25,-717.25"/>
<text text-anchor="middle" x="905" y="-703.75" font-family="sans" font-size="10.00">fastqc_dna_raw</text>
<text text-anchor="middle" x="905" y="-691" font-family="sans" font-size="10.00">alias: normal</text>
<text text-anchor="middle" x="905" y="-678.25" font-family="sans" font-size="10.00">sample: P013</text>
</g>
<!-- 11&#45;&gt;10 -->
<g id="edge18" class="edge">
<title>11&#45;&gt;10</title>
<path fill="none" stroke="grey" stroke-width="2" d="M905,-670.18C905,-663.36 905,-655.78 905,-648.56"/>
<polygon fill="grey" stroke="grey" stroke-width="2" points="908.5,-648.83 905,-638.83 901.5,-648.83 908.5,-648.83"/>
</g>
<!-- 12 -->
<g id="node13" class="node">
<title>12</title>
<path fill="none" stroke="#ced856" stroke-width="2" stroke-dasharray="5,2" d="M634.75,-635C634.75,-635 575.25,-635 575.25,-635 569.25,-635 563.25,-629 563.25,-623 563.25,-623 563.25,-611 563.25,-611 563.25,-605 569.25,-599 575.25,-599 575.25,-599 634.75,-599 634.75,-599 640.75,-599 646.75,-605 646.75,-611 646.75,-611 646.75,-623 646.75,-623 646.75,-629 640.75,-635 634.75,-635"/>
<text text-anchor="middle" x="605" y="-613.88" font-family="sans" font-size="10.00">get_reference</text>
</g>
<!-- 12&#45;&gt;6 -->
<g id="edge10" class="edge">
<title>12&#45;&gt;6</title>
<path fill="none" stroke="grey" stroke-width="2" d="M647.73,-614.32C722.63,-610.48 873.16,-598.45 910,-563 939.14,-534.95 929,-514.45 929,-474 929,-474 929,-474 929,-328 929,-269.66 868.46,-228.4 823.79,-205.9"/>
<polygon fill="grey" stroke="grey" stroke-width="2" points="825.51,-202.84 814.98,-201.63 822.46,-209.14 825.51,-202.84"/>
</g>
<!-- 12&#45;&gt;8 -->
<g id="edge13" class="edge">
<title>12&#45;&gt;8</title>
<path fill="none" stroke="grey" stroke-width="2" d="M643.37,-598.15C660.34,-589.11 679.85,-577.06 695,-563 737.84,-523.25 735.44,-502.13 770,-455 775.96,-446.87 782.58,-438.18 788.73,-430.23"/>
<polygon fill="grey" stroke="grey" stroke-width="2" points="791.48,-432.4 794.86,-422.36 785.96,-428.1 791.48,-432.4"/>
</g>
<!-- 12&#45;&gt;9 -->
<g id="edge15" class="edge">
<title>12&#45;&gt;9</title>
<path fill="none" stroke="grey" stroke-width="2" d="M647.54,-603.86C673.72,-595.11 707.1,-581.57 733,-563 756.28,-546.31 777.34,-521.41 791.69,-502.18"/>
<polygon fill="grey" stroke="grey" stroke-width="2" points="794.33,-504.5 797.36,-494.35 788.66,-500.4 794.33,-504.5"/>
</g>
<!-- 13 -->
<g id="node14" class="node">
<title>13</title>
<path fill="none" stroke="#d8d356" stroke-width="2" stroke-dasharray="5,2" d="M565.25,-563C565.25,-563 520.75,-563 520.75,-563 514.75,-563 508.75,-557 508.75,-551 508.75,-551 508.75,-539 508.75,-539 508.75,-533 514.75,-527 520.75,-527 520.75,-527 565.25,-527 565.25,-527 571.25,-527 577.25,-533 577.25,-539 577.25,-539 577.25,-551 577.25,-551 577.25,-557 571.25,-563 565.25,-563"/>
<text text-anchor="middle" x="543" y="-541.88" font-family="sans" font-size="10.00">bwa_index</text>
</g>
<!-- 12&#45;&gt;13 -->
<g id="edge19" class="edge">
<title>12&#45;&gt;13</title>
<path fill="none" stroke="grey" stroke-width="2" d="M589.35,-598.34C582.72,-590.85 574.84,-581.95 567.47,-573.63"/>
<polygon fill="grey" stroke="grey" stroke-width="2" points="570.11,-571.33 560.86,-566.17 564.87,-575.97 570.11,-571.33"/>
</g>
<!-- 12&#45;&gt;15 -->
<g id="edge22" class="edge">
<title>12&#45;&gt;15</title>
<path fill="none" stroke="grey" stroke-width="2" d="M619.42,-598.22C651.69,-557.12 728.83,-451.04 754,-347 757.76,-331.45 758.29,-326.41 754,-311 751.66,-302.61 747.6,-294.22 743.14,-286.68"/>
<polygon fill="grey" stroke="grey" stroke-width="2" points="746.24,-285.02 737.87,-278.52 740.36,-288.82 746.24,-285.02"/>
</g>
<!-- 16 -->
<g id="node17" class="node">
<title>16</title>
<path fill="none" stroke="#bed856" stroke-width="2" stroke-dasharray="5,2" d="M635.88,-347C635.88,-347 574.12,-347 574.12,-347 568.12,-347 562.12,-341 562.12,-335 562.12,-335 562.12,-323 562.12,-323 562.12,-317 568.12,-311 574.12,-311 574.12,-311 635.88,-311 635.88,-311 641.88,-311 647.88,-317 647.88,-323 647.88,-323 647.88,-335 647.88,-335 647.88,-341 641.88,-347 635.88,-347"/>
<text text-anchor="middle" x="605" y="-325.88" font-family="sans" font-size="10.00">genome_faidx</text>
</g>
<!-- 12&#45;&gt;16 -->
<g id="edge26" class="edge">
<title>12&#45;&gt;16</title>
<path fill="none" stroke="grey" stroke-width="2" d="M605,-598.11C605,-550.56 605,-420.6 605,-360.83"/>
<polygon fill="grey" stroke="grey" stroke-width="2" points="608.5,-360.91 605,-350.91 601.5,-360.91 608.5,-360.91"/>
</g>
<!-- 17 -->
<g id="node18" class="node">
<title>17</title>
<path fill="none" stroke="#56d88a" stroke-width="2" stroke-dasharray="5,2" d="M732.5,-347C732.5,-347 677.5,-347 677.5,-347 671.5,-347 665.5,-341 665.5,-335 665.5,-335 665.5,-323 665.5,-323 665.5,-317 671.5,-311 677.5,-311 677.5,-311 732.5,-311 732.5,-311 738.5,-311 744.5,-317 744.5,-323 744.5,-323 744.5,-335 744.5,-335 744.5,-341 738.5,-347 732.5,-347"/>
<text text-anchor="middle" x="705" y="-325.88" font-family="sans" font-size="10.00">genome_dict</text>
</g>
<!-- 12&#45;&gt;17 -->
<g id="edge27" class="edge">
<title>12&#45;&gt;17</title>
<path fill="none" stroke="grey" stroke-width="2" d="M611.26,-598.11C627.95,-550.36 673.7,-419.51 694.48,-360.08"/>
<polygon fill="grey" stroke="grey" stroke-width="2" points="697.75,-361.34 697.75,-350.74 691.14,-359.03 697.75,-361.34"/>
</g>
<!-- 20 -->
<g id="node21" class="node">
<title>20</title>
<path fill="none" stroke="#9fd856" stroke-width="2" d="M383.62,-203C383.62,-203 338.38,-203 338.38,-203 332.38,-203 326.38,-197 326.38,-191 326.38,-191 326.38,-179 326.38,-179 326.38,-173 332.38,-167 338.38,-167 338.38,-167 383.62,-167 383.62,-167 389.62,-167 395.62,-173 395.62,-179 395.62,-179 395.62,-191 395.62,-191 395.62,-197 389.62,-203 383.62,-203"/>
<text text-anchor="middle" x="361" y="-181.88" font-family="sans" font-size="10.00">apply_bqsr</text>
</g>
<!-- 12&#45;&gt;20 -->
<g id="edge31" class="edge">
<title>12&#45;&gt;20</title>
<path fill="none" stroke="grey" stroke-width="2" d="M562.59,-616.97C503.82,-616.44 396.18,-608.59 319,-563 274.95,-536.98 246,-525.16 246,-474 246,-474 246,-474 246,-328 246,-278.48 288.76,-236.55 322.13,-211.37"/>
<polygon fill="grey" stroke="grey" stroke-width="2" points="324.09,-214.28 330.12,-205.57 319.97,-208.61 324.09,-214.28"/>
</g>
<!-- 22 -->
<g id="node23" class="node">
<title>22</title>
<path fill="none" stroke="#56d89a" stroke-width="2" d="M353.5,-419C353.5,-419 292.5,-419 292.5,-419 286.5,-419 280.5,-413 280.5,-407 280.5,-407 280.5,-395 280.5,-395 280.5,-389 286.5,-383 292.5,-383 292.5,-383 353.5,-383 353.5,-383 359.5,-383 365.5,-389 365.5,-395 365.5,-395 365.5,-407 365.5,-407 365.5,-413 359.5,-419 353.5,-419"/>
<text text-anchor="middle" x="323" y="-397.88" font-family="sans" font-size="10.00">samtools_sort</text>
</g>
<!-- 12&#45;&gt;22 -->
<g id="edge34" class="edge">
<title>12&#45;&gt;22</title>
<path fill="none" stroke="grey" stroke-width="2" d="M562.66,-616.53C515.15,-614.88 438.4,-605.18 390,-563 351.05,-529.06 367.22,-502.54 347,-455 343.72,-447.28 340.04,-439 336.57,-431.33"/>
<polygon fill="grey" stroke="grey" stroke-width="2" points="339.8,-429.97 332.46,-422.33 333.43,-432.88 339.8,-429.97"/>
</g>
<!-- 23 -->
<g id="node24" class="node">
<title>23</title>
<path fill="none" stroke="#56d8d0" stroke-width="2" d="M325.62,-491C325.62,-491 286.38,-491 286.38,-491 280.38,-491 274.38,-485 274.38,-479 274.38,-479 274.38,-467 274.38,-467 274.38,-461 280.38,-455 286.38,-455 286.38,-455 325.62,-455 325.62,-455 331.62,-455 337.62,-461 337.62,-467 337.62,-467 337.62,-479 337.62,-479 337.62,-485 331.62,-491 325.62,-491"/>
<text text-anchor="middle" x="306" y="-469.88" font-family="sans" font-size="10.00">bwa_map</text>
</g>
<!-- 12&#45;&gt;23 -->
<g id="edge36" class="edge">
<title>12&#45;&gt;23</title>
<path fill="none" stroke="grey" stroke-width="2" d="M562.47,-611.53C499.3,-604.17 384.6,-587.79 352,-563 332.9,-548.47 321.02,-523.75 314.14,-504.05"/>
<polygon fill="grey" stroke="grey" stroke-width="2" points="317.49,-503.05 311.13,-494.57 310.82,-505.16 317.49,-503.05"/>
</g>
<!-- 27 -->
<g id="node28" class="node">
<title>27</title>
<path fill="none" stroke="#d88d56" stroke-width="2" d="M480.25,-275C480.25,-275 405.75,-275 405.75,-275 399.75,-275 393.75,-269 393.75,-263 393.75,-263 393.75,-251 393.75,-251 393.75,-245 399.75,-239 405.75,-239 405.75,-239 480.25,-239 480.25,-239 486.25,-239 492.25,-245 492.25,-251 492.25,-251 492.25,-263 492.25,-263 492.25,-269 486.25,-275 480.25,-275"/>
<text text-anchor="middle" x="443" y="-253.88" font-family="sans" font-size="10.00">base_recal_table</text>
</g>
<!-- 12&#45;&gt;27 -->
<g id="edge42" class="edge">
<title>12&#45;&gt;27</title>
<path fill="none" stroke="grey" stroke-width="2" d="M562.48,-602.88C541.26,-594.45 516.63,-581.55 500,-563 431.55,-486.67 437.29,-447.88 419,-347 416.15,-331.26 415.62,-326.64 419,-311 420.69,-303.16 423.65,-295.08 426.91,-287.66"/>
<polygon fill="grey" stroke="grey" stroke-width="2" points="430.04,-289.23 431.23,-278.7 423.74,-286.19 430.04,-289.23"/>
</g>
<!-- 13&#45;&gt;9 -->
<g id="edge16" class="edge">
<title>13&#45;&gt;9</title>
<path fill="none" stroke="grey" stroke-width="2" d="M578.04,-534.85C626.27,-522.25 713.16,-499.55 766.11,-485.73"/>
<polygon fill="grey" stroke="grey" stroke-width="2" points="766.75,-489.17 775.54,-483.26 764.98,-482.4 766.75,-489.17"/>
</g>
<!-- 13&#45;&gt;23 -->
<g id="edge37" class="edge">
<title>13&#45;&gt;23</title>
<path fill="none" stroke="grey" stroke-width="2" d="M507.77,-533.6C466.02,-521.26 396.38,-500.69 350.82,-487.24"/>
<polygon fill="grey" stroke="grey" stroke-width="2" points="351.85,-483.89 341.27,-484.42 349.87,-490.61 351.85,-483.89"/>
</g>
<!-- 14&#45;&gt;9 -->
<g id="edge17" class="edge">
<title>14&#45;&gt;9</title>
<path fill="none" stroke="grey" stroke-width="2" d="M834.93,-526.34C831.77,-519.43 828.06,-511.31 824.51,-503.56"/>
<polygon fill="grey" stroke="grey" stroke-width="2" points="827.78,-502.29 820.44,-494.65 821.42,-505.2 827.78,-502.29"/>
</g>
<!-- 15&#45;&gt;6 -->
<g id="edge9" class="edge">
<title>15&#45;&gt;6</title>
<path fill="none" stroke="grey" stroke-width="2" d="M735.88,-238.34C741.7,-230.93 748.6,-222.14 755.08,-213.9"/>
<polygon fill="grey" stroke="grey" stroke-width="2" points="757.64,-216.31 761.06,-206.28 752.13,-211.98 757.64,-216.31"/>
</g>
<!-- 16&#45;&gt;15 -->
<g id="edge23" class="edge">
<title>16&#45;&gt;15</title>
<path fill="none" stroke="grey" stroke-width="2" d="M634.83,-310.15C648.99,-301.68 666.14,-291.42 681.46,-282.25"/>
<polygon fill="grey" stroke="grey" stroke-width="2" points="682.85,-285.5 689.63,-277.37 679.25,-279.5 682.85,-285.5"/>
</g>
<!-- 16&#45;&gt;27 -->
<g id="edge43" class="edge">
<title>16&#45;&gt;27</title>
<path fill="none" stroke="grey" stroke-width="2" d="M563.7,-310.15C543.22,-301.3 518.23,-290.51 496.31,-281.04"/>
<polygon fill="grey" stroke="grey" stroke-width="2" points="497.85,-277.89 487.28,-277.13 495.07,-284.31 497.85,-277.89"/>
</g>
<!-- 17&#45;&gt;15 -->
<g id="edge24" class="edge">
<title>17&#45;&gt;15</title>
<path fill="none" stroke="grey" stroke-width="2" d="M709.29,-310.34C710.91,-303.67 712.8,-295.89 714.62,-288.39"/>
<polygon fill="grey" stroke="grey" stroke-width="2" points="717.98,-289.39 716.94,-278.84 711.18,-287.73 717.98,-289.39"/>
</g>
<!-- 17&#45;&gt;27 -->
<g id="edge44" class="edge">
<title>17&#45;&gt;27</title>
<path fill="none" stroke="grey" stroke-width="2" d="M664.5,-313.34C661.97,-312.53 659.46,-311.74 657,-311 606.56,-295.86 548.52,-281.69 505.62,-271.81"/>
<polygon fill="grey" stroke="grey" stroke-width="2" points="506.58,-268.44 496.05,-269.63 505.02,-275.26 506.58,-268.44"/>
</g>
<!-- 18 -->
<g id="node19" class="node">
<title>18</title>
<path fill="none" stroke="#afd856" stroke-width="2" stroke-dasharray="5,2" d="M532.25,-347C532.25,-347 439.75,-347 439.75,-347 433.75,-347 427.75,-341 427.75,-335 427.75,-335 427.75,-323 427.75,-323 427.75,-317 433.75,-311 439.75,-311 439.75,-311 532.25,-311 532.25,-311 538.25,-311 544.25,-317 544.25,-323 544.25,-323 544.25,-335 544.25,-335 544.25,-341 538.25,-347 532.25,-347"/>
<text text-anchor="middle" x="486" y="-325.88" font-family="sans" font-size="10.00">get_common_dbSNP</text>
</g>
<!-- 18&#45;&gt;15 -->
<g id="edge25" class="edge">
<title>18&#45;&gt;15</title>
<path fill="none" stroke="grey" stroke-width="2" d="M545.25,-310.43C580.18,-300.07 624.33,-286.97 659.77,-276.46"/>
<polygon fill="grey" stroke="grey" stroke-width="2" points="660.42,-279.92 669.01,-273.72 658.43,-273.21 660.42,-279.92"/>
</g>
<!-- 18&#45;&gt;27 -->
<g id="edge45" class="edge">
<title>18&#45;&gt;27</title>
<path fill="none" stroke="grey" stroke-width="2" d="M475.15,-310.34C470.75,-303.18 465.56,-294.73 460.65,-286.73"/>
<polygon fill="grey" stroke="grey" stroke-width="2" points="463.8,-285.17 455.58,-278.48 457.83,-288.83 463.8,-285.17"/>
</g>
<!-- 19 -->
<g id="node20" class="node">
<title>19</title>
<path fill="none" stroke="#59d856" stroke-width="2" d="M481.62,-119.5C481.62,-119.5 412.38,-119.5 412.38,-119.5 406.38,-119.5 400.38,-113.5 400.38,-107.5 400.38,-107.5 400.38,-95.5 400.38,-95.5 400.38,-89.5 406.38,-83.5 412.38,-83.5 412.38,-83.5 481.62,-83.5 481.62,-83.5 487.62,-83.5 493.62,-89.5 493.62,-95.5 493.62,-95.5 493.62,-107.5 493.62,-107.5 493.62,-113.5 487.62,-119.5 481.62,-119.5"/>
<text text-anchor="middle" x="447" y="-98.38" font-family="sans" font-size="10.00">samtools_index</text>
</g>
<!-- 19&#45;&gt;0 -->
<g id="edge6" class="edge">
<title>19&#45;&gt;0</title>
<path fill="none" stroke="grey" stroke-width="2" d="M412.77,-82.61C388.45,-69.91 355.75,-52.83 330.36,-39.56"/>
<polygon fill="grey" stroke="grey" stroke-width="2" points="332.08,-36.51 321.59,-34.98 328.84,-42.72 332.08,-36.51"/>
</g>
<!-- 20&#45;&gt;19 -->
<g id="edge28" class="edge">
<title>20&#45;&gt;19</title>
<path fill="none" stroke="grey" stroke-width="2" d="M379.66,-166.32C391.08,-155.5 405.91,-141.44 418.74,-129.28"/>
<polygon fill="grey" stroke="grey" stroke-width="2" points="421.03,-131.93 425.88,-122.51 416.22,-126.85 421.03,-131.93"/>
</g>
<!-- 21 -->
<g id="node22" class="node">
<title>21</title>
<path fill="none" stroke="#88d856" stroke-width="2" d="M359.5,-347C359.5,-347 286.5,-347 286.5,-347 280.5,-347 274.5,-341 274.5,-335 274.5,-335 274.5,-323 274.5,-323 274.5,-317 280.5,-311 286.5,-311 286.5,-311 359.5,-311 359.5,-311 365.5,-311 371.5,-317 371.5,-323 371.5,-323 371.5,-335 371.5,-335 371.5,-341 365.5,-347 359.5,-347"/>
<text text-anchor="middle" x="323" y="-325.88" font-family="sans" font-size="10.00">mark_duplicates</text>
</g>
<!-- 21&#45;&gt;20 -->
<g id="edge29" class="edge">
<title>21&#45;&gt;20</title>
<path fill="none" stroke="grey" stroke-width="2" d="M327.81,-310.02C334.12,-286.44 345.28,-244.73 352.9,-216.25"/>
<polygon fill="grey" stroke="grey" stroke-width="2" points="356.24,-217.33 355.44,-206.76 349.48,-215.52 356.24,-217.33"/>
</g>
<!-- 21&#45;&gt;27 -->
<g id="edge41" class="edge">
<title>21&#45;&gt;27</title>
<path fill="none" stroke="grey" stroke-width="2" d="M353.59,-310.15C368.12,-301.68 385.7,-291.42 401.42,-282.25"/>
<polygon fill="grey" stroke="grey" stroke-width="2" points="402.98,-285.4 409.85,-277.34 399.45,-279.35 402.98,-285.4"/>
</g>
<!-- 22&#45;&gt;21 -->
<g id="edge32" class="edge">
<title>22&#45;&gt;21</title>
<path fill="none" stroke="grey" stroke-width="2" d="M323,-382.34C323,-375.75 323,-368.08 323,-360.67"/>
<polygon fill="grey" stroke="grey" stroke-width="2" points="326.5,-360.93 323,-350.93 319.5,-360.93 326.5,-360.93"/>
</g>
<!-- 23&#45;&gt;22 -->
<g id="edge33" class="edge">
<title>23&#45;&gt;22</title>
<path fill="none" stroke="grey" stroke-width="2" d="M310.29,-454.34C311.91,-447.67 313.8,-439.89 315.62,-432.39"/>
<polygon fill="grey" stroke="grey" stroke-width="2" points="318.98,-433.39 317.94,-422.84 312.18,-431.73 318.98,-433.39"/>
</g>
<!-- 24 -->
<g id="node25" class="node">
<title>24</title>
<path fill="none" stroke="#d85656" stroke-width="2" d="M187.25,-635C187.25,-635 142.75,-635 142.75,-635 136.75,-635 130.75,-629 130.75,-623 130.75,-623 130.75,-611 130.75,-611 130.75,-605 136.75,-599 142.75,-599 142.75,-599 187.25,-599 187.25,-599 193.25,-599 199.25,-605 199.25,-611 199.25,-611 199.25,-623 199.25,-623 199.25,-629 193.25,-635 187.25,-635"/>
<text text-anchor="middle" x="165" y="-613.88" font-family="sans" font-size="10.00">trim_reads</text>
</g>
<!-- 24&#45;&gt;23 -->
<g id="edge35" class="edge">
<title>24&#45;&gt;23</title>
<path fill="none" stroke="grey" stroke-width="2" d="M182.86,-598.02C207.23,-573.48 251.09,-529.3 279.35,-500.84"/>
<polygon fill="grey" stroke="grey" stroke-width="2" points="281.59,-503.55 286.15,-493.99 276.62,-498.62 281.59,-503.55"/>
</g>
<!-- 26 -->
<g id="node27" class="node">
<title>26</title>
<path fill="none" stroke="#568ad8" stroke-width="2" d="M168.25,-563C168.25,-563 75.75,-563 75.75,-563 69.75,-563 63.75,-557 63.75,-551 63.75,-551 63.75,-539 63.75,-539 63.75,-533 69.75,-527 75.75,-527 75.75,-527 168.25,-527 168.25,-527 174.25,-527 180.25,-533 180.25,-539 180.25,-539 180.25,-551 180.25,-551 180.25,-557 174.25,-563 168.25,-563"/>
<text text-anchor="middle" x="122" y="-541.88" font-family="sans" font-size="10.00">fastqc_dna_trimmed</text>
</g>
<!-- 24&#45;&gt;26 -->
<g id="edge40" class="edge">
<title>24&#45;&gt;26</title>
<path fill="none" stroke="grey" stroke-width="2" d="M154.15,-598.34C149.75,-591.18 144.56,-582.73 139.65,-574.73"/>
<polygon fill="grey" stroke="grey" stroke-width="2" points="142.8,-573.17 134.58,-566.48 136.83,-576.83 142.8,-573.17"/>
</g>
<!-- 25 -->
<g id="node26" class="node">
<title>25</title>
<path fill="none" stroke="#56d87b" stroke-width="2" d="M199.25,-717.25C199.25,-717.25 130.75,-717.25 130.75,-717.25 124.75,-717.25 118.75,-711.25 118.75,-705.25 118.75,-705.25 118.75,-683 118.75,-683 118.75,-677 124.75,-671 130.75,-671 130.75,-671 199.25,-671 199.25,-671 205.25,-671 211.25,-677 211.25,-683 211.25,-683 211.25,-705.25 211.25,-705.25 211.25,-711.25 205.25,-717.25 199.25,-717.25"/>
<text text-anchor="middle" x="165" y="-703.75" font-family="sans" font-size="10.00">fastqc_dna_raw</text>
<text text-anchor="middle" x="165" y="-691" font-family="sans" font-size="10.00">alias: tumor</text>
<text text-anchor="middle" x="165" y="-678.25" font-family="sans" font-size="10.00">sample: P013</text>
</g>
<!-- 25&#45;&gt;24 -->
<g id="edge39" class="edge">
<title>25&#45;&gt;24</title>
<path fill="none" stroke="grey" stroke-width="2" d="M165,-670.18C165,-663.36 165,-655.78 165,-648.56"/>
<polygon fill="grey" stroke="grey" stroke-width="2" points="168.5,-648.83 165,-638.83 161.5,-648.83 168.5,-648.83"/>
</g>
<!-- 26&#45;&gt;23 -->
<g id="edge38" class="edge">
<title>26&#45;&gt;23</title>
<path fill="none" stroke="grey" stroke-width="2" d="M168.91,-526.15C197.38,-515.32 233.51,-501.58 261.53,-490.92"/>
<polygon fill="grey" stroke="grey" stroke-width="2" points="262.46,-494.31 270.56,-487.48 259.97,-487.77 262.46,-494.31"/>
</g>
<!-- 27&#45;&gt;20 -->
<g id="edge30" class="edge">
<title>27&#45;&gt;20</title>
<path fill="none" stroke="grey" stroke-width="2" d="M422.31,-238.34C413.06,-230.44 401.96,-220.96 391.76,-212.26"/>
<polygon fill="grey" stroke="grey" stroke-width="2" points="394.15,-209.7 384.27,-205.87 389.61,-215.02 394.15,-209.7"/>
</g>
</g>
</svg>
