<?xml version="1.0" encoding="UTF-8" standalone="no"?>
<!DOCTYPE svg PUBLIC "-//W3C//DTD SVG 1.1//EN"
 "http://www.w3.org/Graphics/SVG/1.1/DTD/svg11.dtd">
<!-- Generated by graphviz version 9.0.0 (20231125.0833)
 -->
<!-- Title: snakemake_dag Pages: 1 -->
<svg width="1550pt" height="725pt"
 viewBox="0.00 0.00 1550.00 725.25" xmlns="http://www.w3.org/2000/svg" xmlns:xlink="http://www.w3.org/1999/xlink">
<g id="graph0" class="graph" transform="scale(1 1) rotate(0) translate(4 721.25)">
<title>snakemake_dag</title>
<polygon fill="white" stroke="none" points="-4,4 -4,-721.25 1546,-721.25 1546,4 -4,4"/>
<!-- 0 -->
<g id="node1" class="node">
<title>0</title>
<path fill="none" stroke="#56d8c1" stroke-width="2" d="M444,-36C444,-36 414,-36 414,-36 408,-36 402,-30 402,-24 402,-24 402,-12 402,-12 402,-6 408,0 414,0 414,0 444,0 444,0 450,0 456,-6 456,-12 456,-12 456,-24 456,-24 456,-30 450,-36 444,-36"/>
<text text-anchor="middle" x="429" y="-14.88" font-family="sans" font-size="10.00">all</text>
</g>
<!-- 1 -->
<g id="node2" class="node">
<title>1</title>
<path fill="none" stroke="#56d8b1" stroke-width="2" d="M70,-131C70,-131 12,-131 12,-131 6,-131 0,-125 0,-119 0,-119 0,-84 0,-84 0,-78 6,-72 12,-72 12,-72 70,-72 70,-72 76,-72 82,-78 82,-84 82,-84 82,-119 82,-119 82,-125 76,-131 70,-131"/>
<text text-anchor="middle" x="41" y="-117.5" font-family="sans" font-size="10.00">fastqc_raw</text>
<text text-anchor="middle" x="41" y="-104.75" font-family="sans" font-size="10.00">alias: normal</text>
<text text-anchor="middle" x="41" y="-92" font-family="sans" font-size="10.00">read: R1</text>
<text text-anchor="middle" x="41" y="-79.25" font-family="sans" font-size="10.00">sample: P013</text>
</g>
<!-- 1&#45;&gt;0 -->
<g id="edge1" class="edge">
<title>1&#45;&gt;0</title>
<path fill="none" stroke="grey" stroke-width="2" d="M82.77,-75.27C85.51,-74.06 88.27,-72.96 91,-72 194.11,-35.9 323.52,-24.31 388.22,-20.65"/>
<polygon fill="grey" stroke="grey" stroke-width="2" points="388.19,-24.16 397.99,-20.14 387.82,-17.17 388.19,-24.16"/>
</g>
<!-- 2 -->
<g id="node3" class="node">
<title>2</title>
<path fill="none" stroke="#56d8b1" stroke-width="2" d="M170,-131C170,-131 112,-131 112,-131 106,-131 100,-125 100,-119 100,-119 100,-84 100,-84 100,-78 106,-72 112,-72 112,-72 170,-72 170,-72 176,-72 182,-78 182,-84 182,-84 182,-119 182,-119 182,-125 176,-131 170,-131"/>
<text text-anchor="middle" x="141" y="-117.5" font-family="sans" font-size="10.00">fastqc_raw</text>
<text text-anchor="middle" x="141" y="-104.75" font-family="sans" font-size="10.00">alias: normal</text>
<text text-anchor="middle" x="141" y="-92" font-family="sans" font-size="10.00">read: R2</text>
<text text-anchor="middle" x="141" y="-79.25" font-family="sans" font-size="10.00">sample: P013</text>
</g>
<!-- 2&#45;&gt;0 -->
<g id="edge2" class="edge">
<title>2&#45;&gt;0</title>
<path fill="none" stroke="grey" stroke-width="2" d="M182.84,-75.48C185.56,-74.22 188.3,-73.04 191,-72 257.78,-46.21 340.18,-31.36 388.43,-24.26"/>
<polygon fill="grey" stroke="grey" stroke-width="2" points="388.69,-27.76 398.09,-22.88 387.7,-20.83 388.69,-27.76"/>
</g>
<!-- 3 -->
<g id="node4" class="node">
<title>3</title>
<path fill="none" stroke="#56d8b1" stroke-width="2" d="M270,-131C270,-131 212,-131 212,-131 206,-131 200,-125 200,-119 200,-119 200,-84 200,-84 200,-78 206,-72 212,-72 212,-72 270,-72 270,-72 276,-72 282,-78 282,-84 282,-84 282,-119 282,-119 282,-125 276,-131 270,-131"/>
<text text-anchor="middle" x="241" y="-117.5" font-family="sans" font-size="10.00">fastqc_raw</text>
<text text-anchor="middle" x="241" y="-104.75" font-family="sans" font-size="10.00">alias: tumor</text>
<text text-anchor="middle" x="241" y="-92" font-family="sans" font-size="10.00">read: R1</text>
<text text-anchor="middle" x="241" y="-79.25" font-family="sans" font-size="10.00">sample: P013</text>
</g>
<!-- 3&#45;&gt;0 -->
<g id="edge3" class="edge">
<title>3&#45;&gt;0</title>
<path fill="none" stroke="grey" stroke-width="2" d="M282.77,-76.08C285.53,-74.66 288.29,-73.28 291,-72 323.28,-56.71 361.25,-42.38 389.19,-32.48"/>
<polygon fill="grey" stroke="grey" stroke-width="2" points="390.11,-35.87 398.4,-29.26 387.8,-29.26 390.11,-35.87"/>
</g>
<!-- 4 -->
<g id="node5" class="node">
<title>4</title>
<path fill="none" stroke="#56d8b1" stroke-width="2" d="M370,-131C370,-131 312,-131 312,-131 306,-131 300,-125 300,-119 300,-119 300,-84 300,-84 300,-78 306,-72 312,-72 312,-72 370,-72 370,-72 376,-72 382,-78 382,-84 382,-84 382,-119 382,-119 382,-125 376,-131 370,-131"/>
<text text-anchor="middle" x="341" y="-117.5" font-family="sans" font-size="10.00">fastqc_raw</text>
<text text-anchor="middle" x="341" y="-104.75" font-family="sans" font-size="10.00">alias: tumor</text>
<text text-anchor="middle" x="341" y="-92" font-family="sans" font-size="10.00">read: R2</text>
<text text-anchor="middle" x="341" y="-79.25" font-family="sans" font-size="10.00">sample: P013</text>
</g>
<!-- 4&#45;&gt;0 -->
<g id="edge4" class="edge">
<title>4&#45;&gt;0</title>
<path fill="none" stroke="grey" stroke-width="2" d="M372.77,-71.08C381.71,-62.79 391.39,-53.83 400.15,-45.72"/>
<polygon fill="grey" stroke="grey" stroke-width="2" points="402.39,-48.42 407.34,-39.06 397.63,-43.28 402.39,-48.42"/>
</g>
<!-- 5 -->
<g id="node6" class="node">
<title>5</title>
<path fill="none" stroke="#70d856" stroke-width="2" d="M479.62,-491C479.62,-491 410.38,-491 410.38,-491 404.38,-491 398.38,-485 398.38,-479 398.38,-479 398.38,-467 398.38,-467 398.38,-461 404.38,-455 410.38,-455 410.38,-455 479.62,-455 479.62,-455 485.62,-455 491.62,-461 491.62,-467 491.62,-467 491.62,-479 491.62,-479 491.62,-485 485.62,-491 479.62,-491"/>
<text text-anchor="middle" x="445" y="-476.25" font-family="sans" font-size="10.00">fastqc_trimmed</text>
<text text-anchor="middle" x="445" y="-463.5" font-family="sans" font-size="10.00">read: R1</text>
</g>
<!-- 5&#45;&gt;0 -->
<g id="edge5" class="edge">
<title>5&#45;&gt;0</title>
<path fill="none" stroke="grey" stroke-width="2" d="M453.7,-454.1C465.73,-427.63 486,-376.19 486,-330 486,-330 486,-330 486,-184 486,-134.01 462.34,-79.95 445.51,-47.81"/>
<polygon fill="grey" stroke="grey" stroke-width="2" points="448.73,-46.41 440.89,-39.28 442.57,-49.74 448.73,-46.41"/>
</g>
<!-- 6 -->
<g id="node7" class="node">
<title>6</title>
<path fill="none" stroke="#d85656" stroke-width="2" d="M642.25,-635C642.25,-635 597.75,-635 597.75,-635 591.75,-635 585.75,-629 585.75,-623 585.75,-623 585.75,-611 585.75,-611 585.75,-605 591.75,-599 597.75,-599 597.75,-599 642.25,-599 642.25,-599 648.25,-599 654.25,-605 654.25,-611 654.25,-611 654.25,-623 654.25,-623 654.25,-629 648.25,-635 642.25,-635"/>
<text text-anchor="middle" x="620" y="-613.88" font-family="sans" font-size="10.00">trim_reads</text>
</g>
<!-- 6&#45;&gt;5 -->
<g id="edge11" class="edge">
<title>6&#45;&gt;5</title>
<path fill="none" stroke="grey" stroke-width="2" d="M584.88,-613.29C525.79,-607.91 410.5,-593.67 386,-563 369.82,-542.74 388.92,-518.06 409.59,-499.83"/>
<polygon fill="grey" stroke="grey" stroke-width="2" points="411.6,-502.71 417.07,-493.63 407.13,-497.32 411.6,-502.71"/>
</g>
<!-- 8 -->
<g id="node9" class="node">
<title>8</title>
<path fill="none" stroke="#70d856" stroke-width="2" d="M603.62,-419C603.62,-419 534.38,-419 534.38,-419 528.38,-419 522.38,-413 522.38,-407 522.38,-407 522.38,-395 522.38,-395 522.38,-389 528.38,-383 534.38,-383 534.38,-383 603.62,-383 603.62,-383 609.62,-383 615.62,-389 615.62,-395 615.62,-395 615.62,-407 615.62,-407 615.62,-413 609.62,-419 603.62,-419"/>
<text text-anchor="middle" x="569" y="-404.25" font-family="sans" font-size="10.00">fastqc_trimmed</text>
<text text-anchor="middle" x="569" y="-391.5" font-family="sans" font-size="10.00">read: R2</text>
</g>
<!-- 6&#45;&gt;8 -->
<g id="edge13" class="edge">
<title>6&#45;&gt;8</title>
<path fill="none" stroke="grey" stroke-width="2" d="M610.59,-598.3C605.58,-588.2 599.71,-575.17 596,-563 582.49,-518.64 575.22,-465.21 571.73,-432.43"/>
<polygon fill="grey" stroke="grey" stroke-width="2" points="575.24,-432.35 570.76,-422.75 568.28,-433.04 575.24,-432.35"/>
</g>
<!-- 17 -->
<g id="node18" class="node">
<title>17</title>
<path fill="none" stroke="#56d873" stroke-width="2" d="M892.62,-491C892.62,-491 853.38,-491 853.38,-491 847.38,-491 841.38,-485 841.38,-479 841.38,-479 841.38,-467 841.38,-467 841.38,-461 847.38,-455 853.38,-455 853.38,-455 892.62,-455 892.62,-455 898.62,-455 904.62,-461 904.62,-467 904.62,-467 904.62,-479 904.62,-479 904.62,-485 898.62,-491 892.62,-491"/>
<text text-anchor="middle" x="873" y="-469.88" font-family="sans" font-size="10.00">bwa_map</text>
</g>
<!-- 6&#45;&gt;17 -->
<g id="edge24" class="edge">
<title>6&#45;&gt;17</title>
<path fill="none" stroke="grey" stroke-width="2" d="M654.94,-612.66C713.19,-606.38 826.49,-590.86 854,-563 868.92,-547.89 873.41,-524.12 874.31,-504.95"/>
<polygon fill="grey" stroke="grey" stroke-width="2" points="877.81,-505.04 874.4,-495.01 870.81,-504.98 877.81,-505.04"/>
</g>
<!-- 20 -->
<g id="node21" class="node">
<title>20</title>
<path fill="none" stroke="#61d856" stroke-width="2" d="M709.25,-563C709.25,-563 616.75,-563 616.75,-563 610.75,-563 604.75,-557 604.75,-551 604.75,-551 604.75,-539 604.75,-539 604.75,-533 610.75,-527 616.75,-527 616.75,-527 709.25,-527 709.25,-527 715.25,-527 721.25,-533 721.25,-539 721.25,-539 721.25,-551 721.25,-551 721.25,-557 715.25,-563 709.25,-563"/>
<text text-anchor="middle" x="663" y="-541.88" font-family="sans" font-size="10.00">fastqc_dna_trimmed</text>
</g>
<!-- 6&#45;&gt;20 -->
<g id="edge29" class="edge">
<title>6&#45;&gt;20</title>
<path fill="none" stroke="grey" stroke-width="2" d="M630.85,-598.34C635.25,-591.18 640.44,-582.73 645.35,-574.73"/>
<polygon fill="grey" stroke="grey" stroke-width="2" points="648.17,-576.83 650.42,-566.48 642.2,-573.17 648.17,-576.83"/>
</g>
<!-- 7 -->
<g id="node8" class="node">
<title>7</title>
<path fill="none" stroke="#d87556" stroke-width="2" d="M654.25,-717.25C654.25,-717.25 585.75,-717.25 585.75,-717.25 579.75,-717.25 573.75,-711.25 573.75,-705.25 573.75,-705.25 573.75,-683 573.75,-683 573.75,-677 579.75,-671 585.75,-671 585.75,-671 654.25,-671 654.25,-671 660.25,-671 666.25,-677 666.25,-683 666.25,-683 666.25,-705.25 666.25,-705.25 666.25,-711.25 660.25,-717.25 654.25,-717.25"/>
<text text-anchor="middle" x="620" y="-703.75" font-family="sans" font-size="10.00">fastqc_dna_raw</text>
<text text-anchor="middle" x="620" y="-691" font-family="sans" font-size="10.00">alias: normal</text>
<text text-anchor="middle" x="620" y="-678.25" font-family="sans" font-size="10.00">sample: P013</text>
</g>
<!-- 7&#45;&gt;6 -->
<g id="edge12" class="edge">
<title>7&#45;&gt;6</title>
<path fill="none" stroke="grey" stroke-width="2" d="M620,-670.18C620,-663.36 620,-655.78 620,-648.56"/>
<polygon fill="grey" stroke="grey" stroke-width="2" points="623.5,-648.83 620,-638.83 616.5,-648.83 623.5,-648.83"/>
</g>
<!-- 8&#45;&gt;0 -->
<g id="edge6" class="edge">
<title>8&#45;&gt;0</title>
<path fill="none" stroke="grey" stroke-width="2" d="M563.61,-382.26C556,-355.56 543,-303.36 543,-258 543,-258 543,-258 543,-184 543,-130.68 532.19,-114.51 500,-72 491.18,-60.36 479.14,-50.06 467.48,-41.71"/>
<polygon fill="grey" stroke="grey" stroke-width="2" points="469.73,-39.01 459.49,-36.31 465.81,-44.81 469.73,-39.01"/>
</g>
<!-- 9 -->
<g id="node10" class="node">
<title>9</title>
<path fill="none" stroke="#70d856" stroke-width="2" d="M430.62,-275C430.62,-275 361.38,-275 361.38,-275 355.38,-275 349.38,-269 349.38,-263 349.38,-263 349.38,-251 349.38,-251 349.38,-245 355.38,-239 361.38,-239 361.38,-239 430.62,-239 430.62,-239 436.62,-239 442.62,-245 442.62,-251 442.62,-251 442.62,-263 442.62,-263 442.62,-269 436.62,-275 430.62,-275"/>
<text text-anchor="middle" x="396" y="-260.25" font-family="sans" font-size="10.00">fastqc_trimmed</text>
<text text-anchor="middle" x="396" y="-247.5" font-family="sans" font-size="10.00">read: R1</text>
</g>
<!-- 9&#45;&gt;0 -->
<g id="edge7" class="edge">
<title>9&#45;&gt;0</title>
<path fill="none" stroke="grey" stroke-width="2" d="M401.95,-238.04C405.1,-227.86 408.76,-214.84 411,-203 421.09,-149.58 425.71,-86.31 427.68,-49.6"/>
<polygon fill="grey" stroke="grey" stroke-width="2" points="431.16,-50.1 428.16,-39.94 424.17,-49.75 431.16,-50.1"/>
</g>
<!-- 10 -->
<g id="node11" class="node">
<title>10</title>
<path fill="none" stroke="#d85656" stroke-width="2" d="M413.25,-635C413.25,-635 368.75,-635 368.75,-635 362.75,-635 356.75,-629 356.75,-623 356.75,-623 356.75,-611 356.75,-611 356.75,-605 362.75,-599 368.75,-599 368.75,-599 413.25,-599 413.25,-599 419.25,-599 425.25,-605 425.25,-611 425.25,-611 425.25,-623 425.25,-623 425.25,-629 419.25,-635 413.25,-635"/>
<text text-anchor="middle" x="391" y="-613.88" font-family="sans" font-size="10.00">trim_reads</text>
</g>
<!-- 10&#45;&gt;9 -->
<g id="edge14" class="edge">
<title>10&#45;&gt;9</title>
<path fill="none" stroke="grey" stroke-width="2" d="M377.55,-598.26C359.31,-572.39 329,-522.15 329,-474 329,-474 329,-474 329,-400 329,-357.11 354.3,-313.31 373.81,-285.91"/>
<polygon fill="grey" stroke="grey" stroke-width="2" points="376.53,-288.12 379.66,-278 370.9,-283.96 376.53,-288.12"/>
</g>
<!-- 12 -->
<g id="node13" class="node">
<title>12</title>
<path fill="none" stroke="#70d856" stroke-width="2" d="M389.62,-203C389.62,-203 320.38,-203 320.38,-203 314.38,-203 308.38,-197 308.38,-191 308.38,-191 308.38,-179 308.38,-179 308.38,-173 314.38,-167 320.38,-167 320.38,-167 389.62,-167 389.62,-167 395.62,-167 401.62,-173 401.62,-179 401.62,-179 401.62,-191 401.62,-191 401.62,-197 395.62,-203 389.62,-203"/>
<text text-anchor="middle" x="355" y="-188.25" font-family="sans" font-size="10.00">fastqc_trimmed</text>
<text text-anchor="middle" x="355" y="-175.5" font-family="sans" font-size="10.00">read: R2</text>
</g>
<!-- 10&#45;&gt;12 -->
<g id="edge16" class="edge">
<title>10&#45;&gt;12</title>
<path fill="none" stroke="grey" stroke-width="2" d="M367.3,-598.2C337.73,-573.75 291,-526.77 291,-474 291,-474 291,-474 291,-328 291,-285.46 315.17,-241.58 333.8,-214.07"/>
<polygon fill="grey" stroke="grey" stroke-width="2" points="336.48,-216.34 339.37,-206.15 330.76,-212.32 336.48,-216.34"/>
</g>
<!-- 29 -->
<g id="node30" class="node">
<title>29</title>
<path fill="none" stroke="#56d873" stroke-width="2" d="M768.62,-491C768.62,-491 729.38,-491 729.38,-491 723.38,-491 717.38,-485 717.38,-479 717.38,-479 717.38,-467 717.38,-467 717.38,-461 723.38,-455 729.38,-455 729.38,-455 768.62,-455 768.62,-455 774.62,-455 780.62,-461 780.62,-467 780.62,-467 780.62,-479 780.62,-479 780.62,-485 774.62,-491 768.62,-491"/>
<text text-anchor="middle" x="749" y="-469.88" font-family="sans" font-size="10.00">bwa_map</text>
</g>
<!-- 10&#45;&gt;29 -->
<g id="edge44" class="edge">
<title>10&#45;&gt;29</title>
<path fill="none" stroke="grey" stroke-width="2" d="M425.98,-602.21C452.05,-591.79 488.44,-576.95 520,-563 554.19,-547.89 561.4,-541.14 596,-527 631.91,-512.33 673.56,-498.07 704.33,-488.05"/>
<polygon fill="grey" stroke="grey" stroke-width="2" points="705.06,-491.49 713.5,-485.09 702.91,-484.83 705.06,-491.49"/>
</g>
<!-- 30 -->
<g id="node31" class="node">
<title>30</title>
<path fill="none" stroke="#61d856" stroke-width="2" d="M499.25,-563C499.25,-563 406.75,-563 406.75,-563 400.75,-563 394.75,-557 394.75,-551 394.75,-551 394.75,-539 394.75,-539 394.75,-533 400.75,-527 406.75,-527 406.75,-527 499.25,-527 499.25,-527 505.25,-527 511.25,-533 511.25,-539 511.25,-539 511.25,-551 511.25,-551 511.25,-557 505.25,-563 499.25,-563"/>
<text text-anchor="middle" x="453" y="-541.88" font-family="sans" font-size="10.00">fastqc_dna_trimmed</text>
</g>
<!-- 10&#45;&gt;30 -->
<g id="edge48" class="edge">
<title>10&#45;&gt;30</title>
<path fill="none" stroke="grey" stroke-width="2" d="M406.65,-598.34C413.28,-590.85 421.16,-581.95 428.53,-573.63"/>
<polygon fill="grey" stroke="grey" stroke-width="2" points="431.13,-575.97 435.14,-566.17 425.89,-571.33 431.13,-575.97"/>
</g>
<!-- 11 -->
<g id="node12" class="node">
<title>11</title>
<path fill="none" stroke="#d87556" stroke-width="2" d="M425.25,-717.25C425.25,-717.25 356.75,-717.25 356.75,-717.25 350.75,-717.25 344.75,-711.25 344.75,-705.25 344.75,-705.25 344.75,-683 344.75,-683 344.75,-677 350.75,-671 356.75,-671 356.75,-671 425.25,-671 425.25,-671 431.25,-671 437.25,-677 437.25,-683 437.25,-683 437.25,-705.25 437.25,-705.25 437.25,-711.25 431.25,-717.25 425.25,-717.25"/>
<text text-anchor="middle" x="391" y="-703.75" font-family="sans" font-size="10.00">fastqc_dna_raw</text>
<text text-anchor="middle" x="391" y="-691" font-family="sans" font-size="10.00">alias: tumor</text>
<text text-anchor="middle" x="391" y="-678.25" font-family="sans" font-size="10.00">sample: P013</text>
</g>
<!-- 11&#45;&gt;10 -->
<g id="edge15" class="edge">
<title>11&#45;&gt;10</title>
<path fill="none" stroke="grey" stroke-width="2" d="M391,-670.18C391,-663.36 391,-655.78 391,-648.56"/>
<polygon fill="grey" stroke="grey" stroke-width="2" points="394.5,-648.83 391,-638.83 387.5,-648.83 394.5,-648.83"/>
</g>
<!-- 12&#45;&gt;0 -->
<g id="edge8" class="edge">
<title>12&#45;&gt;0</title>
<path fill="none" stroke="grey" stroke-width="2" d="M368.94,-166.11C376.22,-156.17 384.85,-143.35 391,-131 404.23,-104.42 414.64,-72.13 421.19,-49.06"/>
<polygon fill="grey" stroke="grey" stroke-width="2" points="424.53,-50.15 423.8,-39.58 417.78,-48.29 424.53,-50.15"/>
</g>
<!-- 13 -->
<g id="node14" class="node">
<title>13</title>
<path fill="none" stroke="#56b9d8" stroke-width="2" d="M1225.62,-119.5C1225.62,-119.5 1156.38,-119.5 1156.38,-119.5 1150.38,-119.5 1144.38,-113.5 1144.38,-107.5 1144.38,-107.5 1144.38,-95.5 1144.38,-95.5 1144.38,-89.5 1150.38,-83.5 1156.38,-83.5 1156.38,-83.5 1225.62,-83.5 1225.62,-83.5 1231.62,-83.5 1237.62,-89.5 1237.62,-95.5 1237.62,-95.5 1237.62,-107.5 1237.62,-107.5 1237.62,-113.5 1231.62,-119.5 1225.62,-119.5"/>
<text text-anchor="middle" x="1191" y="-98.38" font-family="sans" font-size="10.00">samtools_index</text>
</g>
<!-- 13&#45;&gt;0 -->
<g id="edge9" class="edge">
<title>13&#45;&gt;0</title>
<path fill="none" stroke="grey" stroke-width="2" d="M1143.62,-95.43C1004.66,-80.57 599.77,-37.26 469.72,-23.36"/>
<polygon fill="grey" stroke="grey" stroke-width="2" points="470.3,-19.9 459.98,-22.31 469.56,-26.86 470.3,-19.9"/>
</g>
<!-- 14 -->
<g id="node15" class="node">
<title>14</title>
<path fill="none" stroke="#8fd856" stroke-width="2" d="M1404.62,-203C1404.62,-203 1359.38,-203 1359.38,-203 1353.38,-203 1347.38,-197 1347.38,-191 1347.38,-191 1347.38,-179 1347.38,-179 1347.38,-173 1353.38,-167 1359.38,-167 1359.38,-167 1404.62,-167 1404.62,-167 1410.62,-167 1416.62,-173 1416.62,-179 1416.62,-179 1416.62,-191 1416.62,-191 1416.62,-197 1410.62,-203 1404.62,-203"/>
<text text-anchor="middle" x="1382" y="-181.88" font-family="sans" font-size="10.00">apply_bqsr</text>
</g>
<!-- 14&#45;&gt;13 -->
<g id="edge17" class="edge">
<title>14&#45;&gt;13</title>
<path fill="none" stroke="grey" stroke-width="2" d="M1346.52,-168.86C1317.89,-156.64 1277.15,-139.26 1244.55,-125.35"/>
<polygon fill="grey" stroke="grey" stroke-width="2" points="1246.3,-122.29 1235.73,-121.59 1243.56,-128.73 1246.3,-122.29"/>
</g>
<!-- 15 -->
<g id="node16" class="node">
<title>15</title>
<path fill="none" stroke="#56d8d0" stroke-width="2" d="M1501.5,-347C1501.5,-347 1428.5,-347 1428.5,-347 1422.5,-347 1416.5,-341 1416.5,-335 1416.5,-335 1416.5,-323 1416.5,-323 1416.5,-317 1422.5,-311 1428.5,-311 1428.5,-311 1501.5,-311 1501.5,-311 1507.5,-311 1513.5,-317 1513.5,-323 1513.5,-323 1513.5,-335 1513.5,-335 1513.5,-341 1507.5,-347 1501.5,-347"/>
<text text-anchor="middle" x="1465" y="-325.88" font-family="sans" font-size="10.00">mark_duplicates</text>
</g>
<!-- 15&#45;&gt;14 -->
<g id="edge18" class="edge">
<title>15&#45;&gt;14</title>
<path fill="none" stroke="grey" stroke-width="2" d="M1454.49,-310.02C1440.46,-286.01 1415.44,-243.21 1398.79,-214.72"/>
<polygon fill="grey" stroke="grey" stroke-width="2" points="1402.02,-213.32 1393.95,-206.45 1395.98,-216.85 1402.02,-213.32"/>
</g>
<!-- 21 -->
<g id="node22" class="node">
<title>21</title>
<path fill="none" stroke="#56d85b" stroke-width="2" d="M1372.25,-275C1372.25,-275 1297.75,-275 1297.75,-275 1291.75,-275 1285.75,-269 1285.75,-263 1285.75,-263 1285.75,-251 1285.75,-251 1285.75,-245 1291.75,-239 1297.75,-239 1297.75,-239 1372.25,-239 1372.25,-239 1378.25,-239 1384.25,-245 1384.25,-251 1384.25,-251 1384.25,-263 1384.25,-263 1384.25,-269 1378.25,-275 1372.25,-275"/>
<text text-anchor="middle" x="1335" y="-253.88" font-family="sans" font-size="10.00">base_recal_table</text>
</g>
<!-- 15&#45;&gt;21 -->
<g id="edge30" class="edge">
<title>15&#45;&gt;21</title>
<path fill="none" stroke="grey" stroke-width="2" d="M1431.86,-310.15C1415.97,-301.6 1396.7,-291.22 1379.55,-281.99"/>
<polygon fill="grey" stroke="grey" stroke-width="2" points="1381.21,-278.91 1370.75,-277.25 1377.89,-285.07 1381.21,-278.91"/>
</g>
<!-- 16 -->
<g id="node17" class="node">
<title>16</title>
<path fill="none" stroke="#afd856" stroke-width="2" d="M1489.5,-419C1489.5,-419 1428.5,-419 1428.5,-419 1422.5,-419 1416.5,-413 1416.5,-407 1416.5,-407 1416.5,-395 1416.5,-395 1416.5,-389 1422.5,-383 1428.5,-383 1428.5,-383 1489.5,-383 1489.5,-383 1495.5,-383 1501.5,-389 1501.5,-395 1501.5,-395 1501.5,-407 1501.5,-407 1501.5,-413 1495.5,-419 1489.5,-419"/>
<text text-anchor="middle" x="1459" y="-397.88" font-family="sans" font-size="10.00">samtools_sort</text>
</g>
<!-- 16&#45;&gt;15 -->
<g id="edge21" class="edge">
<title>16&#45;&gt;15</title>
<path fill="none" stroke="grey" stroke-width="2" d="M1460.51,-382.34C1461.08,-375.75 1461.74,-368.08 1462.37,-360.67"/>
<polygon fill="grey" stroke="grey" stroke-width="2" points="1465.84,-361.18 1463.21,-350.92 1458.87,-360.58 1465.84,-361.18"/>
</g>
<!-- 17&#45;&gt;16 -->
<g id="edge22" class="edge">
<title>17&#45;&gt;16</title>
<path fill="none" stroke="grey" stroke-width="2" d="M905.34,-468.14C1000.74,-456.74 1281.85,-423.16 1402.71,-408.72"/>
<polygon fill="grey" stroke="grey" stroke-width="2" points="1403.09,-412.2 1412.61,-407.54 1402.26,-405.25 1403.09,-412.2"/>
</g>
<!-- 18 -->
<g id="node19" class="node">
<title>18</title>
<path fill="none" stroke="#56d882" stroke-width="2" stroke-dasharray="5,2" d="M1054.75,-635C1054.75,-635 995.25,-635 995.25,-635 989.25,-635 983.25,-629 983.25,-623 983.25,-623 983.25,-611 983.25,-611 983.25,-605 989.25,-599 995.25,-599 995.25,-599 1054.75,-599 1054.75,-599 1060.75,-599 1066.75,-605 1066.75,-611 1066.75,-611 1066.75,-623 1066.75,-623 1066.75,-629 1060.75,-635 1054.75,-635"/>
<text text-anchor="middle" x="1025" y="-613.88" font-family="sans" font-size="10.00">get_reference</text>
</g>
<!-- 18&#45;&gt;14 -->
<g id="edge20" class="edge">
<title>18&#45;&gt;14</title>
<path fill="none" stroke="grey" stroke-width="2" d="M1067.65,-613.31C1157.91,-607.16 1365.28,-590.42 1430,-563 1488.54,-538.19 1542,-537.58 1542,-474 1542,-474 1542,-474 1542,-328 1542,-267.19 1476.54,-226.07 1429.36,-204.34"/>
<polygon fill="grey" stroke="grey" stroke-width="2" points="1430.84,-201.17 1420.28,-200.33 1428.01,-207.57 1430.84,-201.17"/>
</g>
<!-- 18&#45;&gt;16 -->
<g id="edge23" class="edge">
<title>18&#45;&gt;16</title>
<path fill="none" stroke="grey" stroke-width="2" d="M1067.48,-615.42C1155.01,-613.4 1351.52,-604.25 1402,-563 1441.29,-530.89 1453.52,-469.76 1457.32,-432.76"/>
<polygon fill="grey" stroke="grey" stroke-width="2" points="1460.8,-433.15 1458.14,-422.89 1453.82,-432.56 1460.8,-433.15"/>
</g>
<!-- 18&#45;&gt;17 -->
<g id="edge25" class="edge">
<title>18&#45;&gt;17</title>
<path fill="none" stroke="grey" stroke-width="2" d="M986.64,-598.14C969.67,-589.1 950.16,-577.05 935,-563 916.21,-545.59 899.89,-521.57 888.72,-502.86"/>
<polygon fill="grey" stroke="grey" stroke-width="2" points="891.84,-501.27 883.81,-494.36 885.78,-504.77 891.84,-501.27"/>
</g>
<!-- 19 -->
<g id="node20" class="node">
<title>19</title>
<path fill="none" stroke="#567bd8" stroke-width="2" stroke-dasharray="5,2" d="M833.25,-563C833.25,-563 788.75,-563 788.75,-563 782.75,-563 776.75,-557 776.75,-551 776.75,-551 776.75,-539 776.75,-539 776.75,-533 782.75,-527 788.75,-527 788.75,-527 833.25,-527 833.25,-527 839.25,-527 845.25,-533 845.25,-539 845.25,-539 845.25,-551 845.25,-551 845.25,-557 839.25,-563 833.25,-563"/>
<text text-anchor="middle" x="811" y="-541.88" font-family="sans" font-size="10.00">bwa_index</text>
</g>
<!-- 18&#45;&gt;19 -->
<g id="edge28" class="edge">
<title>18&#45;&gt;19</title>
<path fill="none" stroke="grey" stroke-width="2" d="M982.46,-602.09C946.54,-590.34 895.17,-573.53 858.03,-561.38"/>
<polygon fill="grey" stroke="grey" stroke-width="2" points="859.5,-558.18 848.9,-558.4 857.32,-564.83 859.5,-558.18"/>
</g>
<!-- 18&#45;&gt;21 -->
<g id="edge31" class="edge">
<title>18&#45;&gt;21</title>
<path fill="none" stroke="grey" stroke-width="2" d="M1067.71,-608.64C1163.66,-590.88 1388,-542.09 1388,-474 1388,-474 1388,-474 1388,-400 1388,-359.55 1384.39,-348.4 1369,-311 1365.53,-302.58 1360.72,-294.02 1355.81,-286.32"/>
<polygon fill="grey" stroke="grey" stroke-width="2" points="1358.87,-284.59 1350.37,-278.25 1353.06,-288.5 1358.87,-284.59"/>
</g>
<!-- 22 -->
<g id="node23" class="node">
<title>22</title>
<path fill="none" stroke="#9fd856" stroke-width="2" stroke-dasharray="5,2" d="M1347.88,-347C1347.88,-347 1286.12,-347 1286.12,-347 1280.12,-347 1274.12,-341 1274.12,-335 1274.12,-335 1274.12,-323 1274.12,-323 1274.12,-317 1280.12,-311 1286.12,-311 1286.12,-311 1347.88,-311 1347.88,-311 1353.88,-311 1359.88,-317 1359.88,-323 1359.88,-323 1359.88,-335 1359.88,-335 1359.88,-341 1353.88,-347 1347.88,-347"/>
<text text-anchor="middle" x="1317" y="-325.88" font-family="sans" font-size="10.00">genome_faidx</text>
</g>
<!-- 18&#45;&gt;22 -->
<g id="edge35" class="edge">
<title>18&#45;&gt;22</title>
<path fill="none" stroke="grey" stroke-width="2" d="M1043.27,-598.11C1092.94,-549.46 1230.7,-414.53 1289.66,-356.78"/>
<polygon fill="grey" stroke="grey" stroke-width="2" points="1291.88,-359.5 1296.58,-350 1286.99,-354.5 1291.88,-359.5"/>
</g>
<!-- 23 -->
<g id="node24" class="node">
<title>23</title>
<path fill="none" stroke="#d8bc56" stroke-width="2" stroke-dasharray="5,2" d="M1109.5,-347C1109.5,-347 1054.5,-347 1054.5,-347 1048.5,-347 1042.5,-341 1042.5,-335 1042.5,-335 1042.5,-323 1042.5,-323 1042.5,-317 1048.5,-311 1054.5,-311 1054.5,-311 1109.5,-311 1109.5,-311 1115.5,-311 1121.5,-317 1121.5,-323 1121.5,-323 1121.5,-335 1121.5,-335 1121.5,-341 1115.5,-347 1109.5,-347"/>
<text text-anchor="middle" x="1082" y="-325.88" font-family="sans" font-size="10.00">genome_dict</text>
</g>
<!-- 18&#45;&gt;23 -->
<g id="edge36" class="edge">
<title>18&#45;&gt;23</title>
<path fill="none" stroke="grey" stroke-width="2" d="M1030,-598.42C1032.84,-588.14 1036.34,-574.89 1039,-563 1055.14,-490.95 1069.79,-405.38 1077.1,-360.68"/>
<polygon fill="grey" stroke="grey" stroke-width="2" points="1080.54,-361.34 1078.68,-350.91 1073.63,-360.22 1080.54,-361.34"/>
</g>
<!-- 26 -->
<g id="node27" class="node">
<title>26</title>
<path fill="none" stroke="#8fd856" stroke-width="2" d="M970.62,-203C970.62,-203 925.38,-203 925.38,-203 919.38,-203 913.38,-197 913.38,-191 913.38,-191 913.38,-179 913.38,-179 913.38,-173 919.38,-167 925.38,-167 925.38,-167 970.62,-167 970.62,-167 976.62,-167 982.62,-173 982.62,-179 982.62,-179 982.62,-191 982.62,-191 982.62,-197 976.62,-203 970.62,-203"/>
<text text-anchor="middle" x="948" y="-181.88" font-family="sans" font-size="10.00">apply_bqsr</text>
</g>
<!-- 18&#45;&gt;26 -->
<g id="edge40" class="edge">
<title>18&#45;&gt;26</title>
<path fill="none" stroke="grey" stroke-width="2" d="M1019.92,-598.43C1017.06,-588.16 1013.56,-574.91 1011,-563 983.5,-435.17 961.01,-280.77 952.11,-216.44"/>
<polygon fill="grey" stroke="grey" stroke-width="2" points="955.61,-216.21 950.78,-206.78 948.68,-217.16 955.61,-216.21"/>
</g>
<!-- 28 -->
<g id="node29" class="node">
<title>28</title>
<path fill="none" stroke="#afd856" stroke-width="2" d="M929.5,-419C929.5,-419 868.5,-419 868.5,-419 862.5,-419 856.5,-413 856.5,-407 856.5,-407 856.5,-395 856.5,-395 856.5,-389 862.5,-383 868.5,-383 868.5,-383 929.5,-383 929.5,-383 935.5,-383 941.5,-389 941.5,-395 941.5,-395 941.5,-407 941.5,-407 941.5,-413 935.5,-419 929.5,-419"/>
<text text-anchor="middle" x="899" y="-397.88" font-family="sans" font-size="10.00">samtools_sort</text>
</g>
<!-- 18&#45;&gt;28 -->
<g id="edge43" class="edge">
<title>18&#45;&gt;28</title>
<path fill="none" stroke="grey" stroke-width="2" d="M1004.25,-598.04C993.95,-588.39 981.85,-575.84 973,-563 944.03,-520.96 921.52,-465.76 909.27,-432.13"/>
<polygon fill="grey" stroke="grey" stroke-width="2" points="912.61,-431.07 905.96,-422.82 906.01,-433.41 912.61,-431.07"/>
</g>
<!-- 18&#45;&gt;29 -->
<g id="edge45" class="edge">
<title>18&#45;&gt;29</title>
<path fill="none" stroke="grey" stroke-width="2" d="M982.51,-612.79C917.49,-606.99 797.74,-592.53 768,-563 752.84,-547.95 748.4,-523.98 747.57,-504.7"/>
<polygon fill="grey" stroke="grey" stroke-width="2" points="751.07,-504.7 747.53,-494.72 744.07,-504.73 751.07,-504.7"/>
</g>
<!-- 31 -->
<g id="node32" class="node">
<title>31</title>
<path fill="none" stroke="#56d85b" stroke-width="2" d="M1105.25,-275C1105.25,-275 1030.75,-275 1030.75,-275 1024.75,-275 1018.75,-269 1018.75,-263 1018.75,-263 1018.75,-251 1018.75,-251 1018.75,-245 1024.75,-239 1030.75,-239 1030.75,-239 1105.25,-239 1105.25,-239 1111.25,-239 1117.25,-245 1117.25,-251 1117.25,-251 1117.25,-263 1117.25,-263 1117.25,-269 1111.25,-275 1105.25,-275"/>
<text text-anchor="middle" x="1068" y="-253.88" font-family="sans" font-size="10.00">base_recal_table</text>
</g>
<!-- 18&#45;&gt;31 -->
<g id="edge50" class="edge">
<title>18&#45;&gt;31</title>
<path fill="none" stroke="grey" stroke-width="2" d="M1022.3,-598.27C1015.71,-550.52 1001.6,-415.76 1034,-311 1036.62,-302.54 1040.98,-294.12 1045.73,-286.58"/>
<polygon fill="grey" stroke="grey" stroke-width="2" points="1048.57,-288.62 1051.33,-278.39 1042.8,-284.66 1048.57,-288.62"/>
</g>
<!-- 19&#45;&gt;17 -->
<g id="edge26" class="edge">
<title>19&#45;&gt;17</title>
<path fill="none" stroke="grey" stroke-width="2" d="M826.65,-526.34C833.28,-518.85 841.16,-509.95 848.53,-501.63"/>
<polygon fill="grey" stroke="grey" stroke-width="2" points="851.13,-503.97 855.14,-494.17 845.89,-499.33 851.13,-503.97"/>
</g>
<!-- 19&#45;&gt;29 -->
<g id="edge46" class="edge">
<title>19&#45;&gt;29</title>
<path fill="none" stroke="grey" stroke-width="2" d="M795.35,-526.34C788.72,-518.85 780.84,-509.95 773.47,-501.63"/>
<polygon fill="grey" stroke="grey" stroke-width="2" points="776.11,-499.33 766.86,-494.17 770.87,-503.97 776.11,-499.33"/>
</g>
<!-- 20&#45;&gt;17 -->
<g id="edge27" class="edge">
<title>20&#45;&gt;17</title>
<path fill="none" stroke="grey" stroke-width="2" d="M716.81,-526.06C751.35,-514.55 795.69,-499.77 828.29,-488.9"/>
<polygon fill="grey" stroke="grey" stroke-width="2" points="829.35,-492.24 837.73,-485.76 827.14,-485.6 829.35,-492.24"/>
</g>
<!-- 21&#45;&gt;14 -->
<g id="edge19" class="edge">
<title>21&#45;&gt;14</title>
<path fill="none" stroke="grey" stroke-width="2" d="M1346.86,-238.34C1351.72,-231.1 1357.47,-222.53 1362.9,-214.45"/>
<polygon fill="grey" stroke="grey" stroke-width="2" points="1365.62,-216.67 1368.29,-206.41 1359.81,-212.77 1365.62,-216.67"/>
</g>
<!-- 22&#45;&gt;21 -->
<g id="edge32" class="edge">
<title>22&#45;&gt;21</title>
<path fill="none" stroke="grey" stroke-width="2" d="M1321.54,-310.34C1323.26,-303.67 1325.26,-295.89 1327.19,-288.39"/>
<polygon fill="grey" stroke="grey" stroke-width="2" points="1330.54,-289.39 1329.64,-278.83 1323.76,-287.65 1330.54,-289.39"/>
</g>
<!-- 22&#45;&gt;31 -->
<g id="edge51" class="edge">
<title>22&#45;&gt;31</title>
<path fill="none" stroke="grey" stroke-width="2" d="M1273.36,-313.55C1270.54,-312.67 1267.73,-311.81 1265,-311 1220.22,-297.67 1169.29,-284 1130.43,-273.89"/>
<polygon fill="grey" stroke="grey" stroke-width="2" points="1131.49,-270.55 1120.93,-271.43 1129.73,-277.32 1131.49,-270.55"/>
</g>
<!-- 23&#45;&gt;21 -->
<g id="edge33" class="edge">
<title>23&#45;&gt;21</title>
<path fill="none" stroke="grey" stroke-width="2" d="M1122.29,-313.74C1125.23,-312.78 1128.16,-311.86 1131,-311 1178.03,-296.76 1231.85,-282.87 1272.4,-272.89"/>
<polygon fill="grey" stroke="grey" stroke-width="2" points="1272.98,-276.35 1281.87,-270.58 1271.32,-269.55 1272.98,-276.35"/>
</g>
<!-- 23&#45;&gt;31 -->
<g id="edge52" class="edge">
<title>23&#45;&gt;31</title>
<path fill="none" stroke="grey" stroke-width="2" d="M1078.47,-310.34C1077.15,-303.75 1075.62,-296.08 1074.13,-288.67"/>
<polygon fill="grey" stroke="grey" stroke-width="2" points="1077.57,-287.99 1072.17,-278.87 1070.7,-289.36 1077.57,-287.99"/>
</g>
<!-- 24 -->
<g id="node25" class="node">
<title>24</title>
<path fill="none" stroke="#56a9d8" stroke-width="2" stroke-dasharray="5,2" d="M1244.25,-347C1244.25,-347 1151.75,-347 1151.75,-347 1145.75,-347 1139.75,-341 1139.75,-335 1139.75,-335 1139.75,-323 1139.75,-323 1139.75,-317 1145.75,-311 1151.75,-311 1151.75,-311 1244.25,-311 1244.25,-311 1250.25,-311 1256.25,-317 1256.25,-323 1256.25,-323 1256.25,-335 1256.25,-335 1256.25,-341 1250.25,-347 1244.25,-347"/>
<text text-anchor="middle" x="1198" y="-325.88" font-family="sans" font-size="10.00">get_common_dbSNP</text>
</g>
<!-- 24&#45;&gt;21 -->
<g id="edge34" class="edge">
<title>24&#45;&gt;21</title>
<path fill="none" stroke="grey" stroke-width="2" d="M1232.93,-310.15C1249.83,-301.52 1270.37,-291.02 1288.57,-281.72"/>
<polygon fill="grey" stroke="grey" stroke-width="2" points="1290.13,-284.86 1297.44,-277.19 1286.95,-278.62 1290.13,-284.86"/>
</g>
<!-- 24&#45;&gt;31 -->
<g id="edge53" class="edge">
<title>24&#45;&gt;31</title>
<path fill="none" stroke="grey" stroke-width="2" d="M1164.86,-310.15C1148.97,-301.6 1129.7,-291.22 1112.55,-281.99"/>
<polygon fill="grey" stroke="grey" stroke-width="2" points="1114.21,-278.91 1103.75,-277.25 1110.89,-285.07 1114.21,-278.91"/>
</g>
<!-- 25 -->
<g id="node26" class="node">
<title>25</title>
<path fill="none" stroke="#56b9d8" stroke-width="2" d="M830.62,-119.5C830.62,-119.5 761.38,-119.5 761.38,-119.5 755.38,-119.5 749.38,-113.5 749.38,-107.5 749.38,-107.5 749.38,-95.5 749.38,-95.5 749.38,-89.5 755.38,-83.5 761.38,-83.5 761.38,-83.5 830.62,-83.5 830.62,-83.5 836.62,-83.5 842.62,-89.5 842.62,-95.5 842.62,-95.5 842.62,-107.5 842.62,-107.5 842.62,-113.5 836.62,-119.5 830.62,-119.5"/>
<text text-anchor="middle" x="796" y="-98.38" font-family="sans" font-size="10.00">samtools_index</text>
</g>
<!-- 25&#45;&gt;0 -->
<g id="edge10" class="edge">
<title>25&#45;&gt;0</title>
<path fill="none" stroke="grey" stroke-width="2" d="M748.4,-89.93C675.49,-73.74 537.45,-43.08 469.23,-27.93"/>
<polygon fill="grey" stroke="grey" stroke-width="2" points="470.04,-24.53 459.52,-25.78 468.52,-31.36 470.04,-24.53"/>
</g>
<!-- 26&#45;&gt;25 -->
<g id="edge37" class="edge">
<title>26&#45;&gt;25</title>
<path fill="none" stroke="grey" stroke-width="2" d="M914.64,-166.11C892.94,-154.48 864.37,-139.16 840.71,-126.47"/>
<polygon fill="grey" stroke="grey" stroke-width="2" points="842.68,-123.56 832.21,-121.91 839.37,-129.72 842.68,-123.56"/>
</g>
<!-- 27 -->
<g id="node28" class="node">
<title>27</title>
<path fill="none" stroke="#56d8d0" stroke-width="2" d="M935.5,-347C935.5,-347 862.5,-347 862.5,-347 856.5,-347 850.5,-341 850.5,-335 850.5,-335 850.5,-323 850.5,-323 850.5,-317 856.5,-311 862.5,-311 862.5,-311 935.5,-311 935.5,-311 941.5,-311 947.5,-317 947.5,-323 947.5,-323 947.5,-335 947.5,-335 947.5,-341 941.5,-347 935.5,-347"/>
<text text-anchor="middle" x="899" y="-325.88" font-family="sans" font-size="10.00">mark_duplicates</text>
</g>
<!-- 27&#45;&gt;26 -->
<g id="edge38" class="edge">
<title>27&#45;&gt;26</title>
<path fill="none" stroke="grey" stroke-width="2" d="M905.21,-310.02C913.38,-286.33 927.86,-244.35 937.69,-215.86"/>
<polygon fill="grey" stroke="grey" stroke-width="2" points="940.9,-217.29 940.86,-206.7 934.29,-215.01 940.9,-217.29"/>
</g>
<!-- 27&#45;&gt;31 -->
<g id="edge49" class="edge">
<title>27&#45;&gt;31</title>
<path fill="none" stroke="grey" stroke-width="2" d="M942.08,-310.15C963.55,-301.26 989.76,-290.41 1012.7,-280.91"/>
<polygon fill="grey" stroke="grey" stroke-width="2" points="1014.01,-284.15 1021.91,-277.09 1011.33,-277.69 1014.01,-284.15"/>
</g>
<!-- 28&#45;&gt;27 -->
<g id="edge41" class="edge">
<title>28&#45;&gt;27</title>
<path fill="none" stroke="grey" stroke-width="2" d="M899,-382.34C899,-375.75 899,-368.08 899,-360.67"/>
<polygon fill="grey" stroke="grey" stroke-width="2" points="902.5,-360.93 899,-350.93 895.5,-360.93 902.5,-360.93"/>
</g>
<!-- 29&#45;&gt;28 -->
<g id="edge42" class="edge">
<title>29&#45;&gt;28</title>
<path fill="none" stroke="grey" stroke-width="2" d="M781.55,-456.81C801.27,-447.61 826.83,-435.68 849.06,-425.3"/>
<polygon fill="grey" stroke="grey" stroke-width="2" points="850.35,-428.56 857.94,-421.16 847.39,-422.22 850.35,-428.56"/>
</g>
<!-- 30&#45;&gt;29 -->
<g id="edge47" class="edge">
<title>30&#45;&gt;29</title>
<path fill="none" stroke="grey" stroke-width="2" d="M512.19,-530C568.68,-516.64 652.57,-496.8 703.86,-484.68"/>
<polygon fill="grey" stroke="grey" stroke-width="2" points="704.6,-488.1 713.53,-482.39 702.99,-481.28 704.6,-488.1"/>
</g>
<!-- 31&#45;&gt;26 -->
<g id="edge39" class="edge">
<title>31&#45;&gt;26</title>
<path fill="none" stroke="grey" stroke-width="2" d="M1037.41,-238.15C1022.88,-229.68 1005.3,-219.42 989.58,-210.25"/>
<polygon fill="grey" stroke="grey" stroke-width="2" points="991.55,-207.35 981.15,-205.34 988.02,-213.4 991.55,-207.35"/>
</g>
</g>
</svg>
